<svg width="179" height="178" viewBox="0 0 179 178" fill="none" xmlns="http://www.w3.org/2000/svg">
<path d="M0.964844 0.212891V177.84H178.592V0.212891H0.964844ZM1.78751 1.03104H177.774V88.4659C177.683 76.845 175.36 65.5676 170.867 54.941C166.438 44.4682 160.096 35.0621 152.019 26.9848C143.942 18.9076 134.535 12.5661 124.063 8.13646C113.219 3.54866 101.702 1.22537 89.8281 1.22537C77.954 1.22537 66.437 3.54866 55.5936 8.13646C45.1207 12.5661 35.7146 18.9076 27.6374 26.9848C19.5601 35.0621 13.2186 44.4682 8.78899 54.941C4.20119 65.7845 1.87789 77.3015 1.87789 89.1756C1.87789 101.05 4.20119 112.567 8.78899 123.41C13.2186 133.883 19.5601 143.289 27.6374 151.366C35.7146 159.443 45.1207 165.785 55.5936 170.215C65.1036 174.237 75.1336 176.52 85.4663 177.022H1.78299V1.03104H1.78751ZM176.255 89.0264L160.543 104.738L151.924 96.1183V64.6952L176.255 89.0264ZM151.924 63.3302V28.3228C167.73 44.4456 176.562 65.6987 176.806 88.2128L151.924 63.3302ZM159.911 105.371L151.924 113.358V97.3838L159.911 105.371ZM176.811 89.8309C176.644 112.463 167.812 133.824 151.924 150.033V114.718L176.811 89.8309ZM128.858 127.374V115.197C128.899 114.555 128.922 113.918 128.931 113.299C128.94 112.603 128.913 111.898 128.858 111.206V89.6456H140.981C141.722 91.2818 142.301 92.9 142.694 94.4594C145.79 106.681 142.965 116.151 140.05 121.941C137.184 127.636 133.677 130.981 133.044 131.56L128.858 127.374ZM132.542 132.495C131.367 133.648 130.133 134.769 128.858 135.831V128.811L132.542 132.495ZM51.1459 51.1307V63.0951C51.1052 63.737 51.0826 64.3743 51.0736 64.9936C51.0645 65.6896 51.0917 66.3948 51.1459 67.0863V88.6467H38.7837C38.0379 87.0014 37.4548 85.3697 37.0616 83.8013C33.997 71.6108 36.8401 62.155 39.76 56.3694C42.6348 50.6832 46.1378 47.3339 46.7751 46.7553L51.1459 51.1307ZM47.2406 45.7836C48.4881 44.5541 49.8035 43.3653 51.1459 42.2489V49.6888L47.2406 45.7836ZM66.2969 98.5184V105.741C65.0765 105.949 63.82 106.053 62.5634 106.053C58.0977 106.053 53.7314 104.77 49.9391 102.333C49.0667 101.773 48.226 101.145 47.435 100.471L46.879 99.915L57.1349 89.6592H66.2924V97.0268V97.0403C66.2924 97.0539 66.2879 97.0675 66.2879 97.081C66.2382 97.5421 66.2382 98.0257 66.2969 98.5184ZM54.4138 125.263L66.2969 113.38V127.18H64.0641C60.8007 126.972 57.4694 126.312 54.4138 125.263ZM57.8988 127.18H52.4974L53.7133 125.964C55.0602 126.443 56.4614 126.854 57.8988 127.18ZM62.586 115.627L50.9063 103.947C54.4862 105.909 58.4954 106.944 62.5589 106.944C63.8155 106.944 65.072 106.844 66.2969 106.641V111.92L62.586 115.627ZM89.3083 38.5877V54.9456L79.8705 45.5078L81.457 43.9213C83.8165 41.8421 86.5285 39.9979 89.3083 38.5877ZM85.8414 39.5369L89.3083 36.07V37.5978C88.1376 38.1673 86.9759 38.8182 85.8414 39.5369ZM89.3083 56.2067V65.3777H82.0311H82.0175C82.004 65.3777 81.9904 65.3732 81.9769 65.3732C81.7644 65.3506 81.5384 65.337 81.3124 65.337C81.0638 65.337 80.8062 65.3506 80.5485 65.3823H73.2939C72.4351 59.8995 73.7143 54.0099 76.8059 49.2142C77.3709 48.3419 77.9992 47.4921 78.6818 46.7011L79.2377 46.1451L89.3083 56.2067ZM89.3083 83.286V87.8512L86.1759 84.7188C86.5059 84.3979 86.8132 84.068 87.098 83.7425C87.2833 83.5301 87.4641 83.3086 87.6358 83.0826C88.2009 83.182 88.7614 83.2498 89.3083 83.286ZM88.2325 82.269C88.6574 81.6271 89.019 80.9672 89.3083 80.2937V82.382C88.9512 82.3549 88.5896 82.3187 88.2325 82.269ZM87.9839 97.8313C88.8201 99.5037 89.2992 101.375 89.3987 103.386V103.391H84.5035L80.3949 99.2823L81.3938 98.2833C81.5926 98.1116 81.787 97.9579 81.9678 97.8178C83.3148 96.8144 84.951 96.1589 86.8313 95.8742C87.2653 96.5115 87.6494 97.1669 87.9839 97.8313ZM87.8302 95.7567C88.228 95.725 88.6393 95.7069 89.0461 95.7069C89.1636 95.7069 89.2811 95.7069 89.3987 95.7115V98.8755C89.2179 98.3783 89.0054 97.8901 88.7749 97.4246C88.4901 96.855 88.1738 96.2945 87.8302 95.7567ZM85.9544 107.269C86.2075 107.269 86.4652 107.323 86.7093 107.427L86.0358 108.101L85.3307 107.396C85.3804 107.369 85.4301 107.35 85.4753 107.337C85.629 107.292 85.7872 107.269 85.9544 107.269ZM85.8233 106.379L86.0313 106.171L86.2482 106.388C86.1533 106.379 86.0629 106.374 85.968 106.374C85.9183 106.374 85.8685 106.379 85.8233 106.379ZM86.7273 112.047C86.0086 112.603 84.9193 113.059 84.0922 113.141C83.9837 113.15 83.8752 113.154 83.7577 113.154C82.6639 113.154 81.3531 112.671 80.3089 111.889L83.4413 108.756L86.7273 112.047ZM84.6933 108.078C84.6978 108.065 84.7024 108.047 84.7069 108.033L84.7792 108.105L84.6843 108.2C84.6798 108.16 84.6843 108.123 84.6933 108.078ZM83.7622 114.049C83.9069 114.049 84.0515 114.04 84.1871 114.027C84.508 113.995 84.8651 113.918 85.2312 113.805L83.7216 115.315L82.2254 113.819C82.7543 113.972 83.2786 114.049 83.7622 114.049ZM87.6585 112.643C87.2924 113.556 86.9398 114.302 86.6957 114.79C86.3205 115.541 85.8866 116.286 85.4075 117.01L84.3499 115.952L87.6585 112.643ZM87.3421 111.396L85.6742 109.728L87.4551 107.947C87.6088 108.11 87.7353 108.291 87.8348 108.485C88.3546 109.534 87.7715 110.731 87.3421 111.396ZM79.6671 111.269L79.2422 110.844C77.9631 109.172 77.4794 106.785 77.9043 104.286H84.1374L85.3939 105.542L79.6671 111.269ZM64.9861 83.5617C65.0178 83.8826 65.0901 84.2352 65.2076 84.6013L63.7025 83.0961L65.1896 81.609C64.9997 82.2915 64.9274 82.9605 64.9861 83.5617ZM65.9398 86.6037C65.402 86.3731 64.8686 86.1245 64.3578 85.8669C63.6256 85.4962 62.8979 85.0714 62.1928 84.6013L63.0651 83.7289L65.9398 86.6037ZM65.8721 83.4713C65.7636 82.3278 66.2517 80.8587 67.1241 79.7016L70.2429 82.8204L66.9614 86.1019C66.4054 85.3787 65.9535 84.294 65.8721 83.4713ZM71.5989 84.7008C71.626 84.7505 71.6441 84.8002 71.6577 84.8408C71.7707 85.2341 71.739 85.6635 71.5673 86.0703L70.8983 85.4013L71.5989 84.7008ZM70.8938 84.1448L70.8034 84.0544C70.8169 84.0544 70.826 84.0498 70.8396 84.0498C70.8622 84.0498 70.8893 84.0544 70.9164 84.0589C70.9299 84.0634 70.948 84.0679 70.9616 84.0725L70.8938 84.1448ZM74.8126 84.651V88.606C73.6645 88.6015 72.4532 88.484 71.2192 88.2444L74.8126 84.651ZM72.6114 85.1889L72.8148 85.3923L72.6023 85.6048C72.6159 85.4646 72.6159 85.3245 72.6114 85.1889ZM72.295 89.6637C71.8475 89.8626 71.4045 90.0976 70.9706 90.3643L70.27 89.6637H72.295ZM74.0669 89.9982C74.4375 89.9078 74.8307 89.84 75.2466 89.7903V94.6448L71.6125 91.0107C72.417 90.5406 73.2623 90.1925 74.0669 89.9982ZM74.8126 70.6436C74.5459 70.0017 74.3064 69.3554 74.0939 68.7135C73.8363 67.9315 73.6193 67.1089 73.4521 66.2682H74.8126V70.6436ZM74.8126 72.786V73.3556L67.7208 66.2636H72.5481C72.7289 67.1948 72.9639 68.1123 73.2487 68.9847C73.5425 69.8751 74.0487 71.2538 74.8126 72.786ZM74.8126 74.7974V76.411C74.2069 76.3116 73.5968 76.2619 72.9911 76.2619C71.9786 76.2619 71.0203 76.3975 70.1299 76.6642L73.4069 73.3872L74.8126 74.7974ZM72.9866 77.1478C73.5922 77.1478 74.2069 77.2021 74.8171 77.3106V83.3899L73.4476 84.7595L67.7433 79.0598L68.1682 78.6349C69.7728 77.4054 71.6712 77.1478 72.9866 77.1478ZM69.2711 85.0443L71.0429 86.8161C70.8802 86.9698 70.6994 87.0964 70.5051 87.1913C70.2294 87.3269 69.9265 87.3992 69.6011 87.3992C68.8463 87.3992 68.114 87.033 67.6078 86.7076L69.2711 85.0443ZM70.2158 90.875C68.9366 91.8152 67.8744 93.0175 67.1874 94.2967V89.6637H69.0044L70.2158 90.875ZM70.8486 91.5124L75.2466 95.9103V97.6731H67.1828V97.072C67.4631 94.9973 68.7965 92.9723 70.8486 91.5124ZM75.2511 98.5681V98.8709C75.1607 98.7625 75.0658 98.663 74.9618 98.5681H75.2511ZM74.8443 99.9331H73.8996V98.9388C73.9538 98.9568 73.999 98.9749 74.0397 98.9975C74.3968 99.1964 74.6816 99.5263 74.8443 99.9331ZM73.0091 98.9478V99.0472H72.8826C72.9052 99.0201 72.9323 98.993 72.9685 98.9704C72.982 98.9613 72.9956 98.9568 73.0091 98.9478ZM71.6079 98.5681V103.206C70.713 103.093 69.6237 102.645 68.9818 102.116C68.0959 101.389 67.4043 100.001 67.2009 98.5636H71.6079V98.5681ZM68.4213 102.812C68.6699 103.016 68.9728 103.215 69.3118 103.391H67.1874V101.289C67.5309 101.904 67.9558 102.428 68.4213 102.812ZM71.2463 104.286C70.6452 104.534 70.0395 104.76 69.4383 104.959C68.7106 105.203 67.9512 105.407 67.1874 105.574V104.286H71.2463ZM69.7141 105.805C70.5729 105.52 71.9062 105.023 73.3979 104.286H73.9312L67.1874 111.03V106.478C68.0507 106.302 68.9005 106.076 69.7141 105.805ZM72.4939 103.179V100.828H74.9979C74.9934 101.05 74.9527 101.267 74.8849 101.474C74.5188 102.577 73.2713 103.011 72.4939 103.179ZM75.3957 104.286H77.0049C76.7608 105.868 76.8557 107.477 77.276 108.878L74.0397 105.642L75.3957 104.286ZM77.1811 103.391H76.2907L77.5653 102.116C77.4117 102.523 77.285 102.952 77.1811 103.391ZM76.137 101.651V96.8008L78.7767 99.4405L78.1891 100.028C77.5653 100.593 76.8783 101.135 76.137 101.651ZM84.8199 93.3972L82.6006 95.6166C82.8266 95.1329 83.0209 94.6448 83.1837 94.1476C83.378 93.56 83.5452 92.9588 83.6854 92.3531C84.0741 92.674 84.4538 93.0221 84.8199 93.3972ZM83.1972 83.182L84.7883 84.773C84.4945 85.0261 84.1916 85.2703 83.8798 85.5053C83.7216 84.6872 83.4956 83.9098 83.1972 83.182ZM83.0661 90.7666C82.4062 90.3281 81.7237 89.9575 81.0276 89.6637H83.1882C83.1611 90.0298 83.1204 90.3959 83.0661 90.7666ZM82.8989 91.7474C82.7543 92.4751 82.5644 93.1938 82.3384 93.8718C81.7463 95.6481 80.7609 97.307 79.4095 98.8031L76.137 95.5307V89.7134C76.3314 89.7044 76.5257 89.6998 76.7156 89.6998C77.2625 89.6998 77.7868 89.736 78.2749 89.8083C79.8705 90.0434 81.4254 90.6943 82.8989 91.7474ZM79.8072 99.9512L83.2469 103.391H78.0987C78.3337 102.491 78.6863 101.646 79.1157 100.941C79.3145 100.616 79.5451 100.281 79.8072 99.9512ZM83.9792 95.6979L85.5205 94.1566C85.7691 94.4458 86.0132 94.7441 86.2482 95.056C85.4572 95.2007 84.6933 95.4176 83.9792 95.6979ZM85.4572 92.7554C85.1725 92.4661 84.8787 92.1859 84.5894 91.9327C84.3588 91.7293 84.1238 91.535 83.8843 91.3496C83.9792 90.7847 84.0515 90.2197 84.0922 89.6592H88.5489L85.4572 92.7554ZM84.1419 88.6467C84.1509 88.1857 84.1374 87.7382 84.1103 87.3043C84.0922 87.0421 84.0696 86.7754 84.0334 86.5042C84.5171 86.1607 84.9871 85.7946 85.4301 85.4104L88.6619 88.6422H84.1419V88.6467ZM85.5431 84.086L83.1927 81.7356C83.7306 81.9932 84.282 82.2147 84.8425 82.4C85.4301 82.5944 86.0358 82.7617 86.646 82.8927C86.3025 83.3041 85.9363 83.7018 85.5431 84.086ZM83.2379 88.6467H80.0016C80.5666 88.4478 81.1135 88.2128 81.6379 87.9506C82.1622 87.6839 82.6819 87.3902 83.1882 87.0737C83.2289 87.5845 83.2469 88.1133 83.2379 88.6467ZM81.2356 87.1551C79.5722 87.9958 77.7144 88.4749 75.7076 88.5789V83.756L79.7033 79.7604C80.2547 80.2621 80.7519 80.809 81.1497 81.3424C82.1305 82.6622 82.7769 84.2578 83.0661 86.0884C82.4695 86.4816 81.8548 86.8432 81.2356 87.1551ZM75.8884 70.7113C76.0014 69.8118 76.4443 68.718 76.9687 68.0717C77.6919 67.1812 79.0705 66.4851 80.4988 66.2817V70.7113H75.8884ZM80.4988 74.0788V74.368H80.1959C80.3089 74.2776 80.4084 74.1827 80.4988 74.0788ZM80.1327 73.012C80.1146 73.0663 80.0965 73.116 80.0739 73.1567C79.8795 73.5137 79.5496 73.7985 79.1473 73.9658V73.0166H80.1327V73.012ZM80.0242 72.1216V71.9905C80.0513 72.0131 80.0739 72.0402 80.0965 72.0764C80.1056 72.0899 80.11 72.1035 80.1191 72.1216H80.0242ZM78.2523 71.6018V74.1194C78.0308 74.1149 77.8184 74.0742 77.6105 74.0064C76.5122 73.6358 76.0782 72.3838 75.9155 71.6063H78.2523V71.6018ZM76.2771 67.5112C76.0737 67.7598 75.8794 68.0626 75.7031 68.4016V66.2682H77.7959C77.1811 66.6162 76.6613 67.0411 76.2771 67.5112ZM77.0229 77.0077C76.6025 76.845 76.1596 76.7048 75.7076 76.5964V75.6924L77.0229 77.0077ZM78.0399 78.4948C78.3653 78.6937 78.6953 78.9241 79.0253 79.1818L75.7076 82.4995V77.5094C76.5618 77.7445 77.3619 78.0835 78.0399 78.4948ZM79.5541 78.0338C78.7495 77.2247 77.9857 76.289 77.2806 75.2585H82.3294L79.5541 78.0338ZM81.3938 74.368V66.2682H81.9904C84.0831 66.5484 86.1171 67.9135 87.5726 70.0198L83.2243 74.368H81.3938ZM88.0608 70.7882C88.5082 71.5701 88.8427 72.3928 89.028 73.1793C89.1184 73.5499 89.1862 73.9477 89.2359 74.368H84.4854L88.0608 70.7882ZM88.7071 70.1418L89.3083 69.5406V71.2854C89.1365 70.9012 88.9331 70.517 88.7071 70.1418ZM88.2054 69.3825C87.2607 68.0671 86.0448 66.9733 84.7476 66.2682H89.3083V68.2796L88.2054 69.3825ZM72.6521 57.0474C72.0735 59.8362 71.9876 62.6386 72.3989 65.3777H66.8349L63.4177 61.9606L75.1923 50.186C74.0036 52.333 73.1538 54.6382 72.6521 57.0474ZM72.7786 72.7634L67.5671 77.975L67.5535 77.984C67.5445 77.9931 67.5309 78.0021 67.5219 78.0066C67.1648 78.2914 66.8258 78.6349 66.5139 79.0236L61.4515 84.086C56.9586 80.8136 53.6907 75.7421 52.4839 70.1554C52.2669 69.1384 52.1132 68.0943 52.0319 67.0546V66.2682H66.2788L72.7786 72.7634ZM55.0964 78.6485C56.6603 81.035 58.5858 83.078 60.8187 84.7233L56.8953 88.6467H52.0319V71.9996C52.7189 74.3545 53.7449 76.5919 55.0964 78.6485ZM58.1564 88.6467L61.56 85.2431C62.342 85.772 63.151 86.2466 63.9646 86.6579C64.7421 87.0511 65.9851 87.6297 67.4993 88.1495L67.9919 88.6422H58.1564V88.6467ZM67.1874 112.494L73.4114 106.27L78.5823 111.441L78.5913 111.455C78.6004 111.468 78.6094 111.477 78.6185 111.486C78.9032 111.843 79.2468 112.187 79.64 112.494L84.8968 117.751C81.6378 122.244 76.6026 125.512 71.061 126.719C70.0486 126.94 69.0089 127.094 67.9738 127.175H67.1874V112.494ZM79.4909 124.115C81.8593 122.551 83.8888 120.626 85.5296 118.393L89.3987 122.262V127.184H72.8826C75.2239 126.497 77.4478 125.467 79.4909 124.115ZM86.0538 117.652C86.5917 116.856 87.0754 116.029 87.4912 115.193C87.9342 114.307 88.5806 112.887 89.1365 111.165L89.3987 110.903V120.996L86.0538 117.652ZM89.0551 107.938L85.403 104.286H89.4032V105.118C89.3535 106.026 89.2359 106.975 89.0551 107.938ZM89.3987 94.8075C89.2766 94.8029 89.1546 94.8029 89.0371 94.8029C88.6755 94.8029 88.3139 94.8165 87.9613 94.8391C87.7308 94.8526 87.4957 94.8752 87.2562 94.9024C86.9081 94.4187 86.542 93.9487 86.1623 93.5147L89.3987 90.2784V94.8075ZM89.2133 77.41C88.9783 79.0281 88.3184 80.6102 87.2471 82.1063C86.5149 81.9662 85.7962 81.7808 85.1137 81.5548C83.3464 80.9717 81.6921 79.9954 80.1959 78.653L83.5859 75.263H89.3038V75.2991V76.3749C89.2947 76.7365 89.263 77.0845 89.2133 77.41ZM89.3083 34.809L80.8513 43.2659C80.3677 43.6908 79.9021 44.1247 79.4592 44.5586C78.962 45.0468 78.4783 45.562 78.0308 46.0864L62.7849 61.3323L54.1878 52.7353C54.8387 50.9454 55.6071 49.3001 56.4659 47.8447C62.8843 37.0102 71.5356 32.3139 77.6602 30.2799C82.5418 28.6618 86.5918 28.4177 88.576 28.4177C88.906 28.4177 89.1546 28.4268 89.3083 28.4313V34.809ZM66.6043 31.7128C62.4278 33.4078 58.4412 35.5593 54.7439 38.1131L64.9003 27.9567H80.0739C75.468 28.6934 70.9435 29.9545 66.6043 31.7128ZM52.0363 39.46V27.9567H63.5398L52.0363 39.46ZM76.5348 29.733C72.8645 31.0484 69.4429 32.9015 66.3421 35.2565C62.1747 38.425 58.5949 42.5065 55.7021 47.3927C54.8795 48.7803 54.1382 50.3442 53.4963 52.0438L52.0319 50.5793V41.5212C59.1915 35.8079 67.653 31.7399 76.5348 29.733ZM53.1166 53.1014C52.6917 54.3399 52.3302 55.6281 52.0319 56.9344V52.0211L53.1166 53.1014ZM53.8218 53.8066L65.3929 65.3777H52.0363V63.1358C52.2352 59.9899 52.85 56.7672 53.8218 53.8066ZM55.8783 89.6637L46.2508 99.2913L44.6733 97.7138C42.5489 95.3001 40.6821 92.5158 39.2673 89.6637H55.8783ZM40.3115 93.352L36.6231 89.6637H38.2729C38.8696 90.9112 39.5566 92.1497 40.3115 93.352ZM38.969 55.9761C37.0661 59.7458 35.805 63.7641 35.2174 67.918C34.4852 73.1069 34.8197 78.5264 36.1983 84.0228C36.5734 85.5234 37.1158 87.0737 37.8074 88.6467H35.6061L29.4454 82.4859C30.485 72.9126 33.8343 63.6602 39.1588 55.6055C39.091 55.7276 39.0278 55.8496 38.969 55.9761ZM34.3406 88.6467H29.0838C29.0974 86.9879 29.1787 85.3019 29.3278 83.634L34.3406 88.6467ZM29.5177 89.6637H35.3576L44.0133 98.3195C44.4337 98.7986 44.8676 99.2642 45.3016 99.7071C45.7852 100.204 46.3005 100.683 46.8248 101.131L61.9578 116.264L53.3426 124.879C51.7064 124.255 50.1922 123.532 48.8498 122.728C38.065 116.273 33.3868 107.581 31.3618 101.425C29.364 95.3589 29.4815 90.5225 29.5177 89.6637ZM30.5166 101.7C31.8364 105.71 33.7846 109.443 36.3113 112.797C39.4662 116.983 43.5297 120.58 48.3932 123.491C49.6769 124.26 51.1098 124.956 52.6511 125.566L51.0374 127.18H42.5082C36.2887 119.451 32.0534 110.311 30.1867 100.634C30.2861 100.995 30.3991 101.348 30.5166 101.7ZM50.1425 128.075L46.5219 131.695C45.3784 130.534 44.2755 129.313 43.2404 128.075H50.1425ZM51.6024 128.075H64.0279C64.6652 128.115 65.298 128.138 65.9173 128.147C65.9986 128.147 66.08 128.147 66.1613 128.147C66.776 128.147 67.3953 128.124 67.9965 128.075H89.3941V140.247C87.6901 141.034 86.0087 141.635 84.3905 142.046C80.874 142.932 77.3574 143.384 73.9358 143.384C66.4145 143.384 60.5068 141.201 56.8773 139.37C51.3312 136.572 48.0271 133.2 47.2859 132.396L51.6024 128.075ZM83.2108 149.545C77.6422 148.934 72.1955 147.565 67.0201 145.472C63.9239 144.207 60.9136 142.679 58.0525 140.911C61.3701 142.403 64.8641 143.411 68.4575 143.913C70.2294 144.161 72.0509 144.288 73.877 144.288C77.389 144.288 81.005 143.827 84.621 142.914C86.1714 142.521 87.776 141.956 89.4032 141.232V143.361L83.2108 149.545ZM89.3987 144.622V149.906C87.7217 149.893 86.0267 149.811 84.3634 149.658L89.3987 144.622ZM65.7771 146.109L65.8449 146.137C66.0709 146.231 66.3015 146.326 66.5275 146.421L66.6043 146.453L66.6676 146.48C71.1198 148.288 75.7754 149.572 80.5259 150.295H64.5116L53.0805 138.864C57.0038 141.77 61.2662 144.207 65.7771 146.109ZM81.4977 151.258L73.4883 159.267L65.4789 151.258H81.4977ZM82.7633 151.258H89.5433C89.575 151.28 89.6111 151.294 89.6518 151.294H113.987L89.7512 175.53L74.1211 159.9L82.7633 151.258ZM113.545 79.7649V72.3657C114.693 72.1849 115.868 72.0899 117.043 72.0899C121.536 72.0899 125.929 73.3872 129.749 75.8416C130.621 76.402 131.471 77.0348 132.262 77.7128L132.818 78.2688L122.472 88.615H113.54V81.2475V81.2339C113.545 81.2203 113.545 81.2023 113.545 81.1887C113.603 80.7457 113.599 80.2621 113.545 79.7649ZM125.17 52.9206L113.54 64.5506V51.1081H115.786C118.95 51.307 122.191 51.9352 125.17 52.9206ZM121.979 51.1081H126.987L125.88 52.2155C124.614 51.7816 123.308 51.4109 121.979 51.1081ZM117.057 62.512L128.772 74.2279C125.17 72.2481 121.129 71.204 117.043 71.204C115.868 71.204 114.688 71.2944 113.54 71.4662V66.0286L117.057 62.512ZM93.7108 70.9012C93.4622 70.9012 93.209 70.847 92.9649 70.7475L93.6384 70.074L94.3345 70.7701C94.2848 70.7972 94.235 70.8153 94.1898 70.8288C94.0407 70.874 93.878 70.9012 93.7108 70.9012ZM93.8419 71.7871L93.6384 71.9905L93.426 71.778C93.5164 71.7871 93.6068 71.7916 93.6972 71.7916C93.7469 71.7916 93.7967 71.7916 93.8419 71.7871ZM92.9649 66.1416C93.6836 65.5811 94.7684 65.1246 95.5956 65.0433C95.7086 65.0342 95.8216 65.0252 95.9436 65.0252C97.0284 65.0252 98.3302 65.4998 99.3608 66.2727L96.2284 69.405L92.9649 66.1416ZM94.9763 70.0876C94.9718 70.1011 94.9673 70.1192 94.9628 70.1328L94.895 70.065L94.9854 69.9746C94.9899 70.0107 94.9854 70.0469 94.9763 70.0876ZM95.9436 64.1348C95.7944 64.1348 95.6453 64.1438 95.5007 64.1573C95.1797 64.189 94.8317 64.2658 94.4656 64.3788L95.9753 62.8691L97.4579 64.3517C96.9381 64.2116 96.4227 64.1348 95.9436 64.1348ZM92.183 65.4094C92.4542 64.754 92.7434 64.1121 93.0553 63.4974C93.435 62.7426 93.8735 61.9878 94.3616 61.2555L95.3515 62.2454L92.183 65.4094ZM92.3548 66.7925L94.0091 68.4468L92.2282 70.2277C92.079 70.0695 91.9525 69.8887 91.853 69.6943C91.3378 68.6502 91.9208 67.457 92.3548 66.7925ZM99.9981 66.8965L100.418 67.3168C101.698 68.9937 102.172 71.4888 101.698 74.0064H95.6499L94.2667 72.6233L99.9981 66.8965ZM114.711 94.6312C114.679 94.3103 114.602 93.9577 114.489 93.5916L115.999 95.1013L114.507 96.5928C114.702 95.9058 114.769 95.2323 114.711 94.6312ZM113.771 91.6073C114.381 91.8604 114.977 92.1316 115.547 92.4209C116.225 92.7599 116.894 93.1441 117.54 93.5599L116.632 94.4685L113.771 91.6073ZM113.825 94.7215C113.938 95.8651 113.45 97.3387 112.582 98.5003L109.449 95.3679L112.731 92.0864C113.287 92.8051 113.743 93.8944 113.825 94.7215ZM90.4338 139.75V123.293L99.9483 132.807L98.3619 134.394C95.9798 136.491 93.2407 138.34 90.4338 139.75ZM93.9865 138.769L90.4338 142.322V140.744C91.6316 140.161 92.8248 139.501 93.9865 138.769ZM90.4338 122.031V112.91H97.7471H97.7607C97.7742 112.915 97.7923 112.915 97.8058 112.915C98.0228 112.937 98.2443 112.951 98.4749 112.951C98.7235 112.951 98.9856 112.937 99.2432 112.906H106.475C107.348 118.406 106.086 124.305 103.008 129.096C102.448 129.969 101.815 130.818 101.137 131.614L100.581 132.17L90.4338 122.031ZM90.4338 94.8617V90.3824L93.5932 93.5418C93.2542 93.8673 92.9378 94.2018 92.644 94.5363C92.4904 94.7126 92.3367 94.8933 92.1875 95.0877C91.6044 94.9837 91.0168 94.9114 90.4338 94.8617ZM91.5819 95.9013C91.1253 96.5658 90.7411 97.2573 90.4338 97.9579V95.7657C90.8134 95.8019 91.1977 95.8471 91.5819 95.9013ZM100.025 79.5479L100.238 79.3355L103.664 82.7617V88.5744C103.469 88.5834 103.275 88.5879 103.081 88.5879C102.529 88.5879 102 88.5518 101.512 88.4795C99.8625 88.2399 98.2533 87.5529 96.7346 86.4455C96.8792 85.6951 97.0691 84.9629 97.2996 84.2623C97.8556 82.5718 98.7777 80.9808 100.025 79.5479ZM99.8173 78.1693L96.5448 74.8968H101.49C101.255 75.733 100.916 76.5195 100.509 77.1795C100.31 77.5049 100.075 77.8394 99.8173 78.1693ZM98.746 88.6241H96.4453C96.4724 88.2308 96.5131 87.8331 96.5674 87.4308C97.2725 87.9099 98.0048 88.3122 98.746 88.6241ZM96.4499 83.9866C96.251 84.5877 96.0792 85.207 95.9436 85.8262C95.5549 85.4963 95.1752 85.1392 94.8091 84.764L97.0103 82.5628C96.7979 83.0284 96.608 83.5029 96.4499 83.9866ZM95.8126 92.8367C95.9708 93.5826 96.1877 94.3012 96.4634 94.9747L94.9899 93.5012C95.2521 93.2707 95.5278 93.0492 95.8126 92.8367ZM94.3436 92.8593L91.1253 89.6411H95.5007C95.4961 90.0524 95.5097 90.4547 95.5369 90.8389C95.5595 91.1734 95.5956 91.5124 95.6408 91.8423C95.1933 92.1632 94.7549 92.5068 94.3436 92.8593ZM94.104 83.982C93.8554 83.6882 93.6113 83.3854 93.3808 83.069C94.1854 82.9154 94.9583 82.6938 95.6815 82.4046L94.104 83.982ZM94.1718 85.4013C94.4972 85.7403 94.8362 86.0612 95.1707 86.355C95.356 86.5177 95.5459 86.6715 95.7493 86.8342C95.6498 87.4353 95.5775 88.0365 95.5413 88.6286H90.949L94.1718 85.4013ZM94.2306 94.1837L96.4815 96.4347C95.9391 96.1725 95.3831 95.951 94.8227 95.7612C94.2893 95.5849 93.7379 95.4312 93.1819 95.3001C93.5073 94.9159 93.8599 94.5408 94.2306 94.1837ZM96.4092 89.6411H99.7947C99.2297 89.84 98.6737 90.075 98.1494 90.3372C97.5844 90.6219 97.0239 90.9383 96.486 91.2773C96.4318 90.744 96.4047 90.197 96.4092 89.6411ZM98.5471 91.1327C100.224 90.292 102.095 89.8129 104.12 89.7089V94.2606L99.9709 98.4099C99.4195 97.9036 98.9178 97.3567 98.52 96.8234C97.5708 95.5487 96.929 94.0119 96.6216 92.2582C97.2499 91.8378 97.8963 91.4581 98.5471 91.1327ZM103.94 107.576C103.827 108.476 103.379 109.57 102.85 110.216C102.118 111.107 100.73 111.803 99.2929 112.006V107.576H103.94ZM99.2884 104.209V103.92H99.5958C99.4828 104.01 99.3833 104.105 99.2884 104.209ZM99.6591 105.276C99.6772 105.222 99.6953 105.172 99.7179 105.136C99.9167 104.774 100.247 104.494 100.653 104.327V105.276H99.6591ZM99.7676 106.166V106.297C99.7404 106.275 99.7133 106.248 99.6907 106.211C99.6817 106.198 99.6771 106.184 99.6681 106.166H99.7676ZM101.553 106.686V104.168C101.774 104.173 101.991 104.214 102.204 104.281C103.311 104.652 103.745 105.909 103.912 106.682H101.553V106.686ZM103.542 110.777C103.745 110.528 103.944 110.221 104.12 109.882V112.02H102.009C102.629 111.672 103.158 111.247 103.542 110.777ZM102.665 101.176C103.13 101.357 103.619 101.506 104.125 101.628V102.636L102.665 101.176ZM101.643 99.68C101.318 99.4812 100.988 99.2461 100.653 98.9885L104.12 95.5216V100.711C103.212 100.476 102.357 100.118 101.643 99.68ZM100.143 100.159C100.974 100.995 101.761 101.958 102.484 103.029H97.2725L100.143 100.159ZM98.3935 103.92V112.02H97.7923C95.686 111.739 93.5661 110.311 92.1107 108.191L96.3821 103.92H98.3935ZM91.627 107.409C91.2022 106.654 90.8812 105.859 90.7004 105.104C90.61 104.733 90.5422 104.336 90.4925 103.915H95.121L91.627 107.409ZM90.9761 108.06L90.4338 108.603V107.034C90.592 107.382 90.7727 107.726 90.9761 108.06ZM91.4733 108.829C92.4361 110.18 93.6791 111.301 95.0125 112.02H90.4338V109.868L91.4733 108.829ZM108.084 93.4786C108.057 93.4288 108.039 93.3791 108.026 93.3339C107.908 92.9407 107.944 92.5068 108.116 92.1L108.789 92.7735L108.084 93.4786ZM108.789 94.0346L108.88 94.1249C108.866 94.1249 108.857 94.1295 108.844 94.1295C108.821 94.1295 108.794 94.1249 108.762 94.1204C108.749 94.1159 108.731 94.1114 108.717 94.1068L108.789 94.0346ZM105.015 93.3656V89.6863C106.096 89.6908 107.226 89.7948 108.383 89.9982L105.015 93.3656ZM107.067 92.9859L106.864 92.7825L107.081 92.5656C107.063 92.7057 107.058 92.8458 107.067 92.9859ZM107.519 88.6241C107.962 88.4297 108.401 88.1992 108.835 87.9326L109.526 88.6241H107.519ZM105.738 88.2896C105.368 88.38 104.97 88.4478 104.55 88.4976V83.6521L108.184 87.2862C107.384 87.7517 106.543 88.0952 105.738 88.2896ZM105.015 107.812C105.25 108.386 105.467 108.969 105.657 109.543C105.919 110.338 106.141 111.17 106.313 112.024H105.015V107.812ZM106.502 109.262C106.222 108.417 105.738 107.106 105.015 105.637V104.968L112.066 112.02H107.221C107.04 111.075 106.796 110.148 106.502 109.262ZM105.015 103.531V101.8C105.585 101.886 106.154 101.931 106.719 101.931C107.723 101.931 108.681 101.795 109.567 101.529L106.29 104.806L105.015 103.531ZM106.728 101.045C106.159 101.045 105.585 100.995 105.015 100.9V94.6266L106.227 93.4153L111.953 99.1421L111.529 99.567C109.933 100.787 108.039 101.045 106.728 101.045ZM110.417 93.1396L108.636 91.3587C108.799 91.205 108.979 91.0785 109.174 90.9836C109.445 90.848 109.748 90.7801 110.073 90.7801C110.832 90.7801 111.569 91.1463 112.08 91.4808L110.417 93.1396ZM109.59 87.4263C110.882 86.4816 111.958 85.2748 112.654 83.9866V88.6241H110.792L109.59 87.4263ZM108.952 86.789L104.55 82.3865V80.6101H112.65V81.2113C112.374 83.295 111.027 85.3245 108.952 86.789ZM104.803 77.4597C104.807 77.2382 104.848 77.0212 104.916 76.8133C105.286 75.7104 106.539 75.272 107.316 75.1093V77.4597H104.803ZM106.932 79.2406C106.909 79.2677 106.882 79.2948 106.846 79.3174C106.832 79.3265 106.819 79.331 106.801 79.34V79.2406H106.932ZM105.906 78.3547V79.349C105.851 79.3309 105.802 79.3129 105.766 79.2903C105.404 79.0914 105.124 78.766 104.957 78.3547H105.906ZM104.839 79.7197H104.55V79.4168C104.64 79.5253 104.735 79.6248 104.839 79.7197ZM108.211 79.7197V75.0822C109.11 75.1952 110.204 75.6427 110.851 76.1715C111.741 76.8992 112.437 78.2869 112.641 79.7197H108.211ZM111.407 75.4754C111.158 75.272 110.855 75.0731 110.512 74.8968H112.65V77.0032C112.302 76.3839 111.877 75.8596 111.407 75.4754ZM108.03 74.0019C108.749 73.6945 109.495 73.4143 110.204 73.1793C110.991 72.9171 111.813 72.7001 112.654 72.5329V74.0064H108.03V74.0019ZM109.924 72.334C108.988 72.6459 107.533 73.1838 105.924 74.0064H105.562L112.645 66.9236V71.6244C111.718 71.8052 110.801 72.0448 109.924 72.334ZM104.089 74.0019H102.602C102.882 72.3747 102.8 70.7113 102.376 69.2649L105.603 72.4922L104.089 74.0019ZM102.407 74.8968H103.194L102.05 76.0404C102.186 75.6743 102.308 75.2901 102.407 74.8968ZM103.659 76.3704V81.496L100.866 78.7027L101.675 77.8936C102.281 77.3648 102.95 76.854 103.659 76.3704ZM99.2387 78.8518L99.2161 78.879L98.4568 79.6383C98.1856 79.8869 97.9143 80.113 97.6522 80.3073C96.3052 81.3108 94.678 81.9661 92.8113 82.2599C92.4226 81.6723 92.07 81.0667 91.7671 80.461C90.9671 78.8699 90.4925 77.0981 90.3614 75.1997V74.9014H95.2882L99.2387 78.8518ZM90.9671 80.8587C91.2247 81.3695 91.5095 81.8803 91.8168 82.3729C91.3965 82.4091 90.9626 82.4272 90.5332 82.4272C90.4744 82.4272 90.4157 82.4272 90.3569 82.4272V79.453C90.5377 79.9367 90.7411 80.4067 90.9671 80.8587ZM90.5513 83.3312C90.9355 83.3312 91.3106 83.3176 91.6768 83.2905C91.9073 83.2724 92.1423 83.2498 92.3819 83.2227C92.7208 83.7063 93.087 84.1764 93.4667 84.6239L90.3614 87.7337V83.3312C90.4202 83.3312 90.488 83.3312 90.5513 83.3312ZM90.5106 100.878C90.7546 99.2189 91.4462 97.6053 92.5627 96.0776C93.2452 96.2177 93.9141 96.3985 94.5469 96.6064C96.3278 97.1985 97.9912 98.1839 99.4919 99.5399L96.0069 103.025H90.4338V101.61C90.4518 101.352 90.4789 101.104 90.5106 100.878ZM90.4338 143.587L98.9675 135.054C99.4512 134.629 99.9167 134.195 100.36 133.761C100.857 133.273 101.341 132.757 101.788 132.233L117.034 116.987L125.739 125.693C125.098 127.424 124.343 129.024 123.498 130.439C117.029 141.273 108.319 145.969 102.145 148.003C97.2273 149.621 93.1457 149.866 91.1479 149.866C90.836 149.866 90.5919 149.861 90.4292 149.852V143.587H90.4338ZM104.622 128.133C105.802 125.986 106.652 123.677 107.144 121.263C107.718 118.47 107.795 115.663 107.375 112.915H112.957L116.401 116.359L104.622 128.133ZM106.923 105.439L112.134 100.227L112.143 100.218C112.157 100.209 112.166 100.2 112.179 100.191C112.537 99.906 112.876 99.5625 113.187 99.1738L118.295 94.0662C122.919 97.3341 126.277 102.455 127.511 108.128C127.733 109.14 127.886 110.189 127.968 111.229V112.02H113.508L106.923 105.439ZM118.932 93.4288L122.72 89.6411H127.963V106.306C126.454 101.14 123.19 96.4844 118.932 93.4288ZM121.459 89.6411L118.182 92.9181C117.454 92.439 116.704 92.0051 115.949 91.6299C115.136 91.2231 113.834 90.6219 112.243 90.0886L111.8 89.6456H121.459V89.6411ZM112.65 65.4365L106.227 71.8594L101.078 66.7111L101.069 66.7021C101.06 66.6885 101.051 66.6795 101.042 66.6659C100.757 66.3089 100.418 65.9699 100.03 65.6625L94.8724 60.5052C98.1449 56.0213 103.198 52.7624 108.753 51.5556C109.766 51.3341 110.814 51.1849 111.863 51.099H112.645V65.4365H112.65ZM100.301 54.1636C97.9234 55.723 95.8848 57.644 94.2396 59.8724L90.3569 55.9897V51.1036H106.927C104.581 51.7906 102.353 52.8166 100.301 54.1636ZM93.7153 60.6137C93.1684 61.4182 92.6802 62.2499 92.2553 63.0906C91.8305 63.9313 91.2157 65.2783 90.6688 66.9146L90.3524 67.2309V57.2553L93.7153 60.6137ZM90.6914 70.3046L94.3888 74.0019H90.3569V72.8583C90.4111 72.0312 90.5241 71.1724 90.6914 70.3046ZM99.1031 150.331C104.229 149.572 109.246 148.162 114.033 146.137C118.069 144.428 121.916 142.295 125.491 139.786L114.946 150.331H99.1031ZM127.963 138.679V150.331H116.311L127.963 138.679ZM104.202 148.216C107.551 146.928 110.688 145.187 113.549 143.031C117.744 139.863 121.351 135.781 124.266 130.895C125.071 129.544 125.803 128.029 126.431 126.389L127.959 127.916V136.563C121.048 142.118 112.862 146.128 104.202 148.216ZM126.82 125.336C127.267 124.047 127.651 122.709 127.963 121.344V126.479L126.82 125.336ZM126.115 124.63L114.394 112.91H127.959V115.152C127.76 118.348 127.123 121.62 126.115 124.63ZM123.737 88.6241L133.455 78.9061L135.042 80.4926C137.189 82.9334 139.073 85.7403 140.502 88.6241H123.737ZM139.417 84.8725L143.169 88.6241H141.492C140.886 87.3585 140.19 86.0974 139.417 84.8725ZM140.845 122.334C142.744 118.56 144 114.537 144.579 110.374C145.298 105.172 144.959 99.7433 143.562 94.2289C143.187 92.7418 142.644 91.196 141.962 89.6411H144.19L150.36 95.8109C149.311 105.339 146.003 114.524 140.773 122.492C140.796 122.438 140.818 122.389 140.845 122.334ZM145.447 89.6411H150.717C150.703 91.3135 150.618 93.004 150.468 94.6583L145.447 89.6411ZM150.482 88.6241H144.434L135.702 79.8915C135.277 79.4078 134.843 78.9423 134.409 78.4993C133.921 78.0021 133.405 77.5185 132.881 77.071L117.694 61.8838L126.273 53.3048C128.027 53.9512 129.645 54.7105 131.078 55.5648C141.912 62.0194 146.608 70.7113 148.642 76.8676C150.631 82.9153 150.518 87.7653 150.482 88.6241ZM143.661 65.4907C140.493 61.3052 136.411 57.7073 131.525 54.7964C130.16 53.9828 128.623 53.2461 126.96 52.6133L128.465 51.1081H137.442C138.432 52.342 139.385 53.6348 140.285 54.9546C144.683 61.4453 147.734 68.6005 149.366 76.2483C148.041 72.3656 146.125 68.7451 143.661 65.4907ZM129.36 50.2131L133.216 46.3576C134.431 47.587 135.607 48.8842 136.714 50.2131H129.36ZM127.877 50.2131H115.827C115.185 50.1724 114.548 50.1498 113.929 50.1408C113.847 50.1408 113.761 50.1408 113.68 50.1408C113.065 50.1408 112.442 50.1634 111.836 50.2131H90.3614V38.0815C92.079 37.2814 93.774 36.6667 95.4058 36.2463C98.9585 35.3378 102.516 34.8768 105.974 34.8768C111.935 34.8768 117.603 36.2011 122.811 38.8137C128.366 41.598 131.62 44.9428 132.352 45.7383L127.877 50.2131ZM96.7346 28.6392C102.398 29.272 107.926 30.6912 113.174 32.8563C113.174 32.8563 113.328 32.9196 113.364 32.9332C113.422 32.9558 113.477 32.9829 113.535 33.0055L113.653 33.0552C116.627 34.3208 119.524 35.835 122.273 37.5662C118.783 35.9345 115.09 34.8406 111.28 34.3253C109.562 34.0903 107.795 33.9728 106.028 33.9728C102.48 33.9728 98.8274 34.4474 95.1752 35.383C93.6113 35.7808 91.9931 36.3593 90.3569 37.1006V35.0214L96.7346 28.6392ZM90.3569 33.7603V28.2595C92.1016 28.2731 93.8599 28.3589 95.5911 28.5217L90.3569 33.7603ZM117.251 33.5298L117.201 33.5072C116.894 33.3581 116.586 33.2089 116.279 33.0643L116.216 33.0326C115.904 32.888 115.583 32.7388 115.262 32.5942L115.167 32.5535C114.864 32.4179 114.562 32.2868 114.259 32.1558L114.033 32.0563C113.843 31.975 113.648 31.8981 113.459 31.8167L113.35 31.7716C113.35 31.7716 113.219 31.7173 113.192 31.7038L113.16 31.6902C112.916 31.5907 112.668 31.4958 112.424 31.3964C112.424 31.3964 112.229 31.3195 112.184 31.3015C111.949 31.2111 111.709 31.1207 111.474 31.0348C111.474 31.0348 111.244 30.9489 111.194 30.9308C110.977 30.8494 110.756 30.7726 110.534 30.6958L110.453 30.6687C110.362 30.637 110.277 30.6054 110.186 30.5737C109.992 30.5059 109.793 30.4381 109.599 30.3748L109.585 30.3703C109.44 30.3206 109.3 30.2754 109.156 30.2257C108.988 30.1715 108.826 30.1172 108.658 30.0675C108.473 30.0088 108.283 29.95 108.098 29.8912C107.971 29.8505 107.84 29.8144 107.714 29.7737C107.479 29.7014 107.244 29.6336 107.009 29.5658L106.765 29.498C106.475 29.4166 106.172 29.3353 105.87 29.2539L105.806 29.2358C103.885 28.725 101.924 28.3047 99.9574 27.9838H115.28L126.214 38.9177C123.389 36.8791 120.379 35.0666 117.251 33.5298ZM98.3483 27.03L106.331 19.0478L114.313 27.03H98.3483ZM90.8451 2.2017C113.309 2.45934 134.526 11.2688 150.627 27.03H115.673L90.8451 2.2017ZM105.702 18.4149L97.0917 27.0256H90.2891C90.2574 27.003 90.2213 26.9894 90.1806 26.9894H65.8676L90.0721 2.7848L105.702 18.4149ZM64.5025 26.9939H29.0657C45.2925 11.1287 66.6676 2.33278 89.2992 2.19718L64.5025 26.9939ZM51.1459 27.9567V40.3505L47.8101 43.6863C47.2451 44.2151 46.6756 44.7575 46.1242 45.3089C45.5727 45.8604 45.0258 46.4254 44.506 46.9904L29.0431 62.4533V27.9521H51.1459V27.9567ZM38.9374 53.915C36.3791 57.6169 34.223 61.608 32.528 65.789C30.9732 69.6265 29.8024 73.6267 29.0431 77.6857V63.8093L38.9374 53.915ZM32.528 112.377C34.449 117.114 36.9531 121.593 39.9815 125.706L29.0431 114.768V100.467C29.7934 104.53 30.9686 108.535 32.528 112.377ZM40.09 127.18H29.0386V116.128L40.09 127.18ZM40.9804 128.075L45.6631 132.757C45.6677 132.794 45.6857 132.83 45.7128 132.857L63.151 150.295H29.0386V128.075H40.9804ZM64.1138 151.258L89.0145 176.158C66.4371 175.95 45.1253 167.114 28.9618 151.258H64.1138ZM115.348 151.294H150.663C134.459 167.168 113.106 175.991 90.4835 176.158L115.348 151.294ZM128.858 150.331V137.784L150.961 115.681V150.331H128.858ZM140.619 124.662C143.132 121.087 145.266 117.236 146.974 113.199C148.823 108.824 150.161 104.25 150.961 99.5806V114.325L140.619 124.662ZM146.979 65.0026C145.189 60.7673 142.929 56.74 140.253 53.0156L150.966 63.7279V78.6304C150.166 73.9612 148.828 69.3824 146.979 65.0026ZM139.702 51.1081H150.961V62.3674L139.702 51.1081ZM138.807 50.2131L134.029 45.4355C134.025 45.3994 134.007 45.3632 133.979 45.336L116.641 27.9973H150.966V50.2177H138.807V50.2131ZM28.0803 92.344V113.805L3.56384 89.2886L19.2754 73.577L28.0803 82.382V85.7991C28.0216 86.8839 27.9945 87.9913 27.9945 89.0806C27.9945 90.1609 28.0216 91.2592 28.0803 92.344ZM2.84518 88.6467C2.98078 65.78 11.9349 44.2513 28.0759 27.9702V63.416L2.84518 88.6467ZM28.0803 64.772V81.1164L19.9082 72.9442L28.0803 64.772ZM28.0803 115.17V150.381C12.0027 134.163 3.04858 112.716 2.8497 89.9394L28.0803 115.17ZM94.1898 177.022C104.523 176.52 114.552 174.237 124.063 170.215C134.535 165.785 143.942 159.443 152.019 151.366C160.096 143.289 166.438 133.883 170.867 123.41C175.36 112.784 177.683 101.506 177.774 89.8852V177.017H94.1898V177.022Z" fill="white"/>
</svg>
