<svg width="90" height="90" viewBox="0 0 90 90" fill="none" xmlns="http://www.w3.org/2000/svg">
<path d="M38.3435 75.0186C38.2335 75.0186 38.1335 74.9786 38.0535 74.9186L2.17348 45.1386C1.98348 44.9886 1.95346 44.7086 2.09346 44.5186L20.0435 20.1386C20.1135 20.0386 20.2235 19.9686 20.3435 19.9586L56.3335 15.0186C56.3834 15.0086 56.4335 15.0186 56.4835 15.0186L81.4334 19.8486C81.6234 19.8886 81.7735 20.0386 81.7935 20.2286L88.8035 67.4886C88.8435 67.7186 88.6834 67.9486 88.4534 67.9986L67.0634 73.0586L38.3635 75.0286C38.3635 75.0186 38.3535 75.0186 38.3435 75.0186ZM3.07344 44.7086L38.4835 74.0986L66.9334 72.1586L87.8435 67.2086L80.9334 20.6886L56.3734 15.9386L20.6535 20.8486L3.07344 44.7086Z" fill="white"/>
<path d="M2.45344 45.2486C2.29344 45.2486 2.13348 45.1586 2.05348 45.0086C1.93348 44.7886 2.02342 44.5086 2.24342 44.3886L48.0134 20.0086C48.0834 19.9686 48.1535 19.9586 48.2235 19.9586L81.3335 19.8386C81.5835 19.8386 81.7835 20.0386 81.7935 20.2886C81.7935 20.5386 81.5935 20.7486 81.3435 20.7486L48.3435 20.8686L2.67347 45.1886C2.60347 45.2286 2.53344 45.2486 2.45344 45.2486Z" fill="white"/>
<path d="M66.9634 73.0686C66.7534 73.0686 66.5534 72.9186 66.5134 72.6986L56.0535 16.1986L48.4534 20.7986C48.3834 20.8386 48.3034 20.8686 48.2134 20.8686H20.3934C20.1434 20.8686 19.9334 20.6686 19.9334 20.4086C19.9334 20.1586 20.1334 19.9486 20.3934 19.9486H48.0934L56.1434 15.0686C56.2734 14.9886 56.4334 14.9786 56.5634 15.0386C56.7034 15.0986 56.7934 15.2286 56.8234 15.3686L67.4034 72.5086C67.4534 72.7586 67.2835 72.9886 67.0435 73.0386C67.0235 73.0686 66.9934 73.0686 66.9634 73.0686Z" fill="white"/>
<path d="M38.3434 74.7986C38.3034 74.7986 38.2634 74.7886 38.2234 74.7686C38.1134 74.6986 38.0834 74.5586 38.1534 74.4586L53.2134 50.1986C53.2734 50.0986 53.4034 50.0686 53.5034 50.1186L88.4534 67.3686C88.5634 67.4286 88.6135 67.5586 88.5535 67.6686C88.4935 67.7786 88.3634 67.8286 88.2534 67.7686L53.4835 50.6086L38.5334 74.6886C38.4934 74.7586 38.4134 74.7986 38.3434 74.7986Z" fill="white"/>
<path d="M53.4034 50.5386C53.3534 50.5386 53.2934 50.5186 53.2534 50.4786L20.2534 20.5886C20.1634 20.5086 20.1535 20.3586 20.2335 20.2686C20.3235 20.1786 20.4635 20.1686 20.5535 20.2486L53.5535 50.1386C53.6435 50.2186 53.6534 50.3686 53.5734 50.4586C53.5234 50.5086 53.4634 50.5386 53.4034 50.5386Z" fill="white"/>
<path d="M33.9534 71.1586C33.8934 71.1586 33.8435 71.1386 33.7935 71.0986C33.7035 71.0086 33.6934 70.8686 33.7834 70.7786L51.5634 51.9286L29.9235 67.6586C29.8235 67.7286 29.6835 67.7086 29.6035 67.6086C29.5335 67.5086 29.5534 67.3686 29.6534 67.2886L53.2734 50.1286C53.3634 50.0586 53.5034 50.0786 53.5734 50.1586C53.6534 50.2486 53.6534 50.3786 53.5734 50.4686L34.1234 71.0886C34.0734 71.1286 34.0134 71.1586 33.9534 71.1586Z" fill="white"/>
<path d="M25.2735 63.9586C25.1835 63.9586 25.1034 63.9086 25.0634 63.8286C25.0134 63.7186 25.0535 63.5786 25.1735 63.5286L50.8635 51.2686L20.4635 59.9086C20.3335 59.9486 20.2134 59.8686 20.1834 59.7486C20.1534 59.6286 20.2235 59.4986 20.3435 59.4686L53.3435 50.0886C53.4635 50.0586 53.5734 50.1186 53.6234 50.2286C53.6634 50.3386 53.6134 50.4586 53.5034 50.5186L25.3734 63.9386C25.3434 63.9486 25.3135 63.9586 25.2735 63.9586Z" fill="white"/>
<path d="M15.8134 56.1086C15.7034 56.1086 15.6034 56.0286 15.5834 55.9186C15.5634 55.7986 15.6534 55.6786 15.7734 55.6586L49.4235 50.6686L10.7834 51.9386H10.7734C10.6534 51.9386 10.5535 51.8386 10.5435 51.7186C10.5435 51.5886 10.6334 51.4886 10.7634 51.4786L53.3734 50.0786C53.5134 50.0686 53.5935 50.1686 53.6035 50.2886C53.6135 50.4086 53.5335 50.5186 53.4135 50.5386L15.8334 56.1086C15.8434 56.0986 15.8234 56.1086 15.8134 56.1086Z" fill="white"/>
<path d="M53.4034 50.5386L53.3934 50.5386L6.02342 47.9886C5.89342 47.9786 5.8034 47.8786 5.8134 47.7486C5.8234 47.6286 5.92344 47.5386 6.04344 47.5386H6.05345L49.0535 49.8586L4.13341 42.7086C4.01341 42.6886 3.9234 42.5686 3.9434 42.4486C3.9634 42.3286 4.07341 42.2486 4.20341 42.2586L53.4434 50.0986C53.5634 50.1186 53.6434 50.2286 53.6334 50.3486C53.6134 50.4486 53.5134 50.5386 53.4034 50.5386Z" fill="white"/>
<path d="M53.4034 50.5386C53.3834 50.5386 53.3635 50.5386 53.3435 50.5286L7.28348 38.3786C7.16348 38.3486 7.09344 38.2186 7.12344 38.0986C7.15344 37.9786 7.28347 37.8986 7.40347 37.9386L50.3935 49.2786L11.3935 32.7586C11.2735 32.7086 11.2235 32.5786 11.2735 32.4586C11.3235 32.3386 11.4535 32.2886 11.5735 32.3386L53.5034 50.0986C53.6134 50.1486 53.6635 50.2686 53.6335 50.3786C53.5835 50.4786 53.4934 50.5386 53.4034 50.5386Z" fill="white"/>
<path d="M53.4034 50.5386C53.3634 50.5386 53.3234 50.5286 53.2934 50.5086L14.4234 28.5986C14.3134 28.5386 14.2734 28.3986 14.3334 28.2886C14.3934 28.1786 14.5334 28.1386 14.6434 28.1986L50.1534 48.2186L17.5034 24.3586C17.4034 24.2886 17.3834 24.1386 17.4534 24.0386C17.5234 23.9386 17.6734 23.9186 17.7734 23.9886L53.5434 50.1286C53.6434 50.1986 53.6634 50.3386 53.6034 50.4386C53.5534 50.4986 53.4734 50.5386 53.4034 50.5386Z" fill="white"/>
</svg>
