<svg width="90" height="90" viewBox="0 0 90 90" fill="none" xmlns="http://www.w3.org/2000/svg">
<path d="M48.8573 89.4775H41.9173C41.8573 89.4775 41.7873 89.4675 41.7373 89.4375L33.4573 85.8175C33.4173 85.7975 33.3773 85.7775 33.3473 85.7475L12.7373 68.5875C12.6973 68.5575 12.6573 68.5175 12.6373 68.4675L10.1772 64.2875L6.30724 58.3075C6.27724 58.2575 6.2573 58.2075 6.2373 58.1475L2.00726 35.8175C1.99726 35.7675 1.99726 35.7275 2.00726 35.6775L3.04729 27.3575L3.91729 22.6375C3.93729 22.5375 3.98724 22.4475 4.05724 22.3775L13.3672 14.0075C13.3972 13.9875 13.4273 13.9675 13.4573 13.9475L37.3473 1.1375C37.3873 1.1175 37.4373 1.0975 37.4873 1.0875L43.8672 0.0075C43.9172 -0.0025 43.9572 -0.0025 43.9972 0.0075L50.7673 0.867501C50.8173 0.877501 50.8673 0.887494 50.9173 0.907494L75.2773 13.1975C75.3073 13.2175 75.3372 13.2375 75.3672 13.2575L82.9573 19.6375L85.1273 21.6375C85.1872 21.6875 85.2273 21.7575 85.2573 21.8375L86.5973 26.1075L87.4773 34.9075C87.4773 34.9575 87.4773 34.9975 87.4673 35.0475L82.8973 57.2075C82.8873 57.2575 82.8673 57.3075 82.8373 57.3575L76.3672 67.6175C76.3472 67.6475 76.3173 67.6875 76.2873 67.7075L57.3173 85.2075C57.2873 85.2375 57.2473 85.2575 57.2173 85.2775L49.0673 89.4175C48.9973 89.4575 48.9273 89.4775 48.8573 89.4775ZM42.0073 88.5675H48.7472L56.7472 84.5075L75.6273 67.0875L82.0173 56.9475L86.5572 34.9375L85.6973 26.2975L84.4173 22.2375L82.3473 20.3375L74.8173 14.0075L50.5773 1.7775L43.9473 0.937493L37.7073 1.9875L13.9372 14.7275L4.77728 22.9475L3.94726 27.4975L2.92724 35.7175L7.12725 57.8975L10.9573 63.8175L13.3873 67.9475L33.8873 85.0175L42.0073 88.5675Z" fill="white"/>
<path d="M57.0073 85.3375C56.9273 85.3375 56.8473 85.3175 56.7773 85.2775C56.5573 85.1475 56.4873 84.8775 56.6073 84.6575L58.7573 80.9475L61.0273 58.8175L59.4972 49.6075L53.6373 39.7175L19.9773 16.5375L13.5373 14.7875C13.2973 14.7175 13.1473 14.4675 13.2173 14.2275C13.2873 13.9875 13.5373 13.8475 13.7773 13.9075L20.2873 15.6775C20.3373 15.6875 20.3872 15.7175 20.4272 15.7375L54.2273 39.0175C54.2773 39.0575 54.3273 39.1075 54.3573 39.1575L60.3072 49.2075C60.3372 49.2575 60.3572 49.3075 60.3672 49.3675L61.9173 58.7275C61.9273 58.7675 61.9273 58.8075 61.9173 58.8475L59.6273 81.1375C59.6173 81.1975 59.5973 81.2675 59.5673 81.3175L57.3672 85.1075C57.3172 85.2575 57.1673 85.3375 57.0073 85.3375Z" fill="white"/>
<path d="M41.9173 89.4775C41.7373 89.4775 41.5673 89.3675 41.4973 89.1975L40.0273 85.5775C40.0073 85.5275 39.9973 85.4675 39.9973 85.4175L39.6073 63.0875L41.4673 53.7175C41.4773 53.6675 41.4973 53.6275 41.5173 53.5875L45.4573 46.4275C45.4773 46.3875 45.5173 46.3375 45.5573 46.3075L53.6973 39.0675L77.3273 21.8975L82.2373 19.4175C82.4573 19.3075 82.7373 19.3975 82.8473 19.6175C82.9573 19.8375 82.8673 20.1175 82.6473 20.2275L77.7973 22.6775L54.2573 39.7875L46.2173 46.9475L42.3573 53.9775L40.5173 63.1775L40.9073 85.3275L42.3373 88.8675C42.4273 89.0975 42.3173 89.3675 42.0873 89.4575C42.0273 89.4675 41.9673 89.4775 41.9173 89.4775Z" fill="white"/>
<path d="M48.8573 89.4775C48.7873 89.4775 48.7173 89.4575 48.6473 89.4275C48.4273 89.3075 48.3373 89.0375 48.4473 88.8175L50.2973 85.2375L51.4073 63.0075L49.8873 54.3375L41.8973 54.2575C41.8373 54.2575 41.7773 54.2475 41.7273 54.2175L31.9373 50.0375L7.31729 32.7475C7.28729 32.7275 7.25732 32.6975 7.22732 32.6675L3.12729 27.7075C3.00729 27.5675 2.9873 27.3675 3.0773 27.1975L7.17727 19.5975C7.23727 19.4875 7.3373 19.4075 7.4573 19.3775C7.5773 19.3475 7.70729 19.3675 7.81729 19.4275L12.7273 22.4575L37.8073 39.0175L46.1273 46.2975C46.1673 46.3275 46.1873 46.3675 46.2173 46.4075L50.4373 53.3075L59.6773 49.0575L82.3173 31.1975L85.9273 25.7775C86.0673 25.5675 86.3473 25.5175 86.5573 25.6475C86.7673 25.7875 86.8273 26.0675 86.6873 26.2775L83.0373 31.7575C83.0073 31.7975 82.9773 31.8375 82.9373 31.8575L60.1973 49.7975C60.1673 49.8175 60.1373 49.8375 60.1073 49.8575L50.7673 54.1475L52.3073 62.8975C52.3173 62.9275 52.3173 62.9675 52.3173 62.9975L51.1973 85.3775C51.1973 85.4475 51.1773 85.5075 51.1473 85.5675L49.2473 89.2375C49.1773 89.3875 49.0173 89.4775 48.8573 89.4775ZM42.0073 53.3375L49.4573 53.4175L45.4973 46.9375L37.2773 39.7375L12.2573 23.2175L7.7673 20.4475L4.04733 27.3575L7.90732 32.0275L32.3873 49.2375L42.0073 53.3375Z" fill="white"/>
<path d="M40.0573 63.5175C39.9973 63.5175 39.9373 63.5075 39.8873 63.4875L29.8873 59.3475C29.8473 59.3375 29.8173 59.3175 29.7873 59.2875L5.76729 41.3075C5.72729 41.2775 5.68732 41.2375 5.66732 41.1975L2.0873 35.9775C1.9473 35.7675 1.9973 35.4875 2.2073 35.3475C2.4173 35.2075 2.6973 35.2575 2.8373 35.4675L6.37728 40.6275L30.2873 58.5275L40.1573 62.6075L51.7873 62.5275L61.2573 58.4075L83.0873 40.1675L86.6373 34.7075C86.7773 34.4975 87.0573 34.4375 87.2673 34.5775C87.4773 34.7175 87.5373 34.9975 87.3973 35.2075L83.8073 40.7275C83.7773 40.7675 83.7473 40.7975 83.7173 40.8275L61.7873 59.1475C61.7573 59.1775 61.7173 59.1975 61.6773 59.2175L52.0573 63.3975C51.9973 63.4175 51.9373 63.4375 51.8773 63.4375L40.0573 63.5175C40.0673 63.5175 40.0673 63.5175 40.0573 63.5175Z" fill="white"/>
<path d="M33.6373 85.8475C33.4473 85.8475 33.2773 85.7275 33.2073 85.5475L31.9473 82.0375C31.9373 81.9975 31.9273 81.9675 31.9173 81.9275L29.6073 58.9575C29.6073 58.9075 29.6072 58.8575 29.6172 58.8175L31.6873 49.5075C31.6973 49.4675 31.7073 49.4275 31.7273 49.3875L37.1772 39.1675C37.2072 39.1175 37.2473 39.0675 37.2973 39.0275L44.8473 32.9275L69.5373 15.3375C69.5673 15.3175 69.5973 15.2975 69.6273 15.2875L74.8973 13.1775C75.1273 13.0875 75.3973 13.1975 75.4873 13.4275C75.5773 13.6575 75.4673 13.9275 75.2373 14.0175L70.0173 16.1075L45.3873 33.6475L37.9373 39.6775L32.5573 49.7575L30.5173 58.9375L32.8173 81.7775L34.0673 85.2275C34.1573 85.4675 34.0273 85.7275 33.7973 85.8075C33.7373 85.8375 33.6873 85.8475 33.6373 85.8475Z" fill="white"/>
<path d="M40.4473 85.8475C40.3873 85.8475 40.3273 85.8375 40.2673 85.8075L32.1872 82.2975C32.1472 82.2775 32.1173 82.2575 32.0773 82.2375L10.4073 64.6175C10.3273 64.5475 10.2672 64.4575 10.2472 64.3575L5.58727 41.0275C5.57727 40.9675 5.57727 40.9175 5.58727 40.8575L7.13726 32.2775C7.14726 32.2375 7.15724 32.1875 7.17724 32.1475L12.0873 22.6175C12.1173 22.5675 12.1472 22.5175 12.1872 22.4875L19.8573 15.7575L43.0973 2.9675L37.4573 1.9675C37.2073 1.9275 37.0473 1.6875 37.0873 1.4375C37.1273 1.1875 37.3672 1.02751 37.6172 1.06751L44.4372 2.27751L50.5873 0.857501C50.8473 0.797501 51.0773 0.957513 51.1373 1.19751C51.1973 1.44751 51.0373 1.68752 50.7973 1.74752L45.7773 2.9075L69.9873 15.3075C70.0173 15.3275 70.0473 15.3375 70.0673 15.3675L77.8573 21.8975C77.8973 21.9375 77.9373 21.9775 77.9673 22.0275L83.0572 31.2775C83.0872 31.3375 83.1073 31.3975 83.1073 31.4575L83.8573 40.4275C83.8573 40.4675 83.8573 40.5075 83.8573 40.5475L80.2173 61.4075C80.1973 61.4975 80.1573 61.5775 80.0973 61.6475L76.1473 65.7575L59.5073 81.4075C59.4773 81.4375 59.4373 81.4575 59.3973 81.4775L50.9473 85.7475C50.8873 85.7775 50.8172 85.7975 50.7472 85.7975L40.4473 85.8475ZM32.6073 81.4975L40.5373 84.9375L50.6373 84.8975L58.9372 80.7075L75.5173 65.1175L79.3573 61.1175L82.9673 40.4475L82.2373 31.6375L77.2373 22.5375L69.5473 16.0975L44.4873 3.2675L20.4073 16.4975L12.8773 23.1075L8.03728 32.4975L6.50726 40.9275L11.1172 64.0075L32.6073 81.4975Z" fill="white"/>
<path d="M40.4473 85.6275C40.4273 85.6275 40.4072 85.6275 40.3772 85.6175C40.2672 85.5775 40.1973 85.4675 40.2173 85.3475L45.1073 63.0175C45.1373 62.8975 45.2472 62.8275 45.3772 62.8475C45.4972 62.8775 45.5773 62.9975 45.5473 63.1175L41.2472 82.7675L49.1973 62.9175C49.2473 62.7975 49.3772 62.7475 49.4972 62.7875C49.6172 62.8375 49.6672 62.9675 49.6272 63.0875L40.6573 85.4875C40.6273 85.5675 40.5373 85.6275 40.4473 85.6275Z" fill="white"/>
<path d="M40.4473 85.6275C40.3973 85.6275 40.3473 85.6075 40.3073 85.5775C40.2173 85.5075 40.1873 85.3775 40.2473 85.2775L51.4773 66.7675C51.5373 66.6575 51.6773 66.6275 51.7873 66.6875C51.8973 66.7575 51.9273 66.8975 51.8673 66.9975L41.6873 83.7775L51.1473 74.0275C51.2373 73.9375 51.3773 73.9375 51.4673 74.0275C51.5573 74.1175 51.5573 74.2575 51.4673 74.3475L40.6073 85.5475C40.5673 85.5975 40.5073 85.6275 40.4473 85.6275Z" fill="white"/>
<path d="M40.4473 85.6275C40.3573 85.6275 40.2773 85.5775 40.2373 85.4975C40.1873 85.3975 40.2273 85.2675 40.3273 85.2075L50.9573 78.7075C51.0673 78.6475 51.2073 78.6775 51.2673 78.7875C51.3373 78.8975 51.2972 79.0375 51.1872 79.0975L42.1172 84.6375L50.8373 81.9275C50.9573 81.8875 51.0872 81.9575 51.1272 82.0775C51.1672 82.1975 51.0973 82.3275 50.9773 82.3675L40.5173 85.6175C40.4973 85.6175 40.4673 85.6275 40.4473 85.6275Z" fill="white"/>
</svg>
