<svg width="90" height="90" viewBox="0 0 90 90" fill="none" xmlns="http://www.w3.org/2000/svg">
<path d="M54.4201 83.6614C54.3801 83.6614 54.3401 83.6614 54.3101 83.6514L26.3701 76.4914L3.34006 70.4514C3.21006 70.4114 3.10008 70.3214 3.04008 70.2014C2.98008 70.0714 2.99006 69.9314 3.05006 69.8114L16.6601 43.4414L6.46006 20.3014C6.41006 20.1814 6.41007 20.0414 6.47007 19.9214C6.53007 19.8014 6.64006 19.7114 6.77006 19.6814L27.3501 14.5114L55.8601 7.04139C55.9101 7.03139 55.9601 7.02138 56.0101 7.03138L86.48 9.56138C86.72 9.58138 86.9101 9.79139 86.9001 10.0414L84.1401 66.7814C84.1301 66.9414 84.05 67.0814 83.91 67.1514L54.6501 83.6214C54.5801 83.6414 54.5001 83.6614 54.4201 83.6614ZM4.13007 69.7114L26.6001 75.6014L54.3601 82.7114L83.2401 66.4514L85.97 10.4014L56.0201 7.91138L27.5801 15.3614L7.52006 20.4014L17.5901 43.2514C17.6501 43.3814 17.6401 43.5214 17.5801 43.6414L4.13007 69.7114Z" fill="white"/>
<path d="M54.4201 83.6614C54.18 83.6614 53.9801 83.4714 53.9701 83.2314L52.6801 61.8414L55.5301 7.43139C55.5401 7.18139 55.7701 6.98138 56.0101 7.00138C56.2601 7.01138 56.4501 7.23139 56.4401 7.48139L53.5901 61.8414L54.8801 83.1714C54.9001 83.4214 54.7 83.6414 54.45 83.6514C54.44 83.6614 54.43 83.6614 54.4201 83.6614Z" fill="white"/>
<path d="M26.49 76.5014C26.47 76.5014 26.4601 76.5014 26.4401 76.5014C26.1901 76.4714 26.01 76.2514 26.0301 76.0014L28.1901 55.3014L27.0101 14.9514C27.0001 14.7014 27.2 14.4914 27.45 14.4814H27.46C27.71 14.4814 27.91 14.6814 27.92 14.9214L29.1001 55.3314L26.9401 76.0914C26.9101 76.3214 26.71 76.5014 26.49 76.5014Z" fill="white"/>
<path d="M53.1301 62.2714C53.0901 62.2714 53.0501 62.2714 53.0101 62.2614L28.52 55.7914C28.44 55.7714 28.37 55.7314 28.31 55.6614L16.84 43.7614C16.67 43.5814 16.6701 43.2914 16.8501 43.1214C17.0301 42.9514 17.32 42.9514 17.49 43.1314L28.87 54.9414L53.24 61.3714C53.48 61.4314 53.63 61.6814 53.56 61.9314C53.52 62.1414 53.3301 62.2714 53.1301 62.2714Z" fill="white"/>
<path d="M18.7001 74.2314C18.6001 74.2314 18.5001 74.1614 18.4801 74.0614C18.4501 73.9414 18.5301 73.8114 18.6501 73.7814L26.6401 71.8514L23.0701 49.8414C23.0501 49.7214 23.1301 49.6014 23.2601 49.5814C23.3801 49.5614 23.5001 49.6414 23.5201 49.7714L27.1201 71.9914C27.1401 72.1114 27.0601 72.2214 26.9501 72.2514L18.7501 74.2314C18.7401 74.2314 18.7201 74.2314 18.7001 74.2314Z" fill="white"/>
<path d="M26.9001 72.2514C26.8201 72.2514 26.7401 72.2114 26.7001 72.1314L14.2401 48.8314C14.1801 48.7214 14.2201 48.5814 14.3301 48.5214C14.4401 48.4614 14.5801 48.5014 14.6401 48.6114L26.0101 69.8714L18.4801 45.0914C18.4401 44.9714 18.5101 44.8414 18.6301 44.8114C18.7601 44.7714 18.8801 44.8414 18.9101 44.9614L27.1101 71.9514C27.1401 72.0614 27.09 72.1814 26.9801 72.2314C26.9601 72.2514 26.9301 72.2514 26.9001 72.2514Z" fill="white"/>
<path d="M26.9001 72.2514C26.8601 72.2514 26.8101 72.2414 26.7701 72.2114L8.73004 59.7314C8.63004 59.6614 8.60005 59.5214 8.67005 59.4114C8.74005 59.3114 8.88005 59.2814 8.99005 59.3514L25.6501 70.8714L11.5801 54.0714C11.5001 53.9714 11.51 53.8314 11.6101 53.7514C11.7101 53.6714 11.8501 53.6814 11.9301 53.7814L27.0701 71.8714C27.1401 71.9614 27.1401 72.0914 27.0601 72.1714C27.0301 72.2314 26.9701 72.2514 26.9001 72.2514Z" fill="white"/>
<path d="M26.9001 72.2514L8.85008 71.6514C8.72008 71.6514 8.63008 71.5414 8.63008 71.4114C8.63008 71.2814 8.74007 71.1814 8.87007 71.1914L25.3701 71.7414L5.99006 65.1714C5.87006 65.1314 5.81008 65.0014 5.85008 64.8814C5.89008 64.7614 6.02006 64.7014 6.14006 64.7414L26.9801 71.8014C27.0901 71.8414 27.1501 71.9514 27.1301 72.0614C27.1101 72.1814 27.0101 72.2514 26.9001 72.2514Z" fill="white"/>
</svg>
