<svg width="90" height="90" viewBox="0 0 90 90" fill="none" xmlns="http://www.w3.org/2000/svg">
<path d="M53.78 87.2839C53.69 87.2839 53.59 87.2539 53.51 87.1939L29.36 69.4539L10.3 68.7639C10.05 68.7539 9.84999 68.5439 9.85999 68.2939L10.66 43.6539L1.03003 14.7639C1.01003 14.7139 1 14.6639 1 14.6039C1 14.5939 1 14.5939 1 14.5839C1.01 14.3839 1.15002 14.2239 1.33002 14.1739L25.58 6.70394L40.6 4.73394L62.25 6.07394L75.05 3.01394C75.13 2.99394 75.21 2.99394 75.29 3.02394L88.17 7.04394C88.29 7.08394 88.38 7.16394 88.44 7.27394C88.5 7.38394 88.51 7.50394 88.47 7.62394L80.13 33.3439L88.92 56.6539C88.96 56.7639 88.96 56.8839 88.91 56.9939L82.59 71.8239C82.55 71.9139 82.48 71.9939 82.39 72.0439L53.99 87.2239C53.93 87.2739 53.85 87.2839 53.78 87.2839ZM10.79 67.8839L29.54 68.5539C29.63 68.5539 29.72 68.5839 29.79 68.6439L53.82 86.2939L81.83 71.3239L88.02 56.8039L79.23 33.5139C79.19 33.4139 79.19 33.3139 79.22 33.2139L87.47 7.78393L75.15 3.94394L62.42 6.98394C62.41 6.98394 62.41 6.98394 62.4 6.98394L47.81 10.4639L34.51 14.7539L64.31 11.6439C64.44 11.6339 64.56 11.6739 64.65 11.7539C64.75 11.8339 64.8 11.9539 64.81 12.0839L66.76 56.9239C66.77 57.1039 66.67 57.2739 66.5 57.3539C66.34 57.4339 66.14 57.4039 66 57.2839L44.67 38.7739C44.64 38.7439 44.61 38.7139 44.59 38.6739L29.95 16.1039L2.09998 15.1039L11.55 43.4539C11.57 43.5039 11.58 43.5539 11.57 43.6139L10.79 67.8839ZM45.33 38.1239L65.81 55.8939L63.93 12.5939L31 16.0339L45.33 38.1239ZM4.16998 14.2739L30.15 15.2039L47.57 9.59394L59.24 6.81394L40.65 5.65394L25.79 7.60394L4.16998 14.2739Z" fill="white"/>
<path d="M29.52 69.4639C29.45 69.4639 29.38 69.4439 29.31 69.4139C29.09 69.3039 29 69.0239 29.11 68.8039L44.18 39.0039L11.19 44.0439C10.96 44.0739 10.71 43.9139 10.67 43.6639C10.63 43.4139 10.8 43.1839 11.05 43.1439L44.9099 37.9739C45.0799 37.9539 45.25 38.0139 45.3499 38.1539C45.4499 38.2939 45.47 38.4739 45.39 38.6239L29.93 69.2039C29.84 69.3739 29.68 69.4639 29.52 69.4639Z" fill="white"/>
<path d="M53.78 87.2839C53.72 87.2839 53.66 87.2739 53.6 87.2439C53.37 87.1439 53.26 86.8839 53.36 86.6439L65.89 56.7439L72.18 44.9239L79.03 33.2939C79.16 33.0739 79.44 33.0039 79.65 33.1339C79.87 33.2639 79.94 33.5439 79.81 33.7539L72.97 45.3639L66.71 57.1339L54.2 86.9939C54.13 87.1839 53.96 87.2839 53.78 87.2839Z" fill="white"/>
<path d="M82.18 72.1139C81.99 72.1139 81.82 71.9939 81.75 71.8139L72.15 45.3139C72.13 45.2539 72.12 45.1939 72.12 45.1339L74.64 4.47394L64.63 12.4539C64.43 12.6139 64.15 12.5839 63.99 12.3839C63.83 12.1839 63.86 11.9039 64.06 11.7439L74.87 3.12394C75.01 3.01394 75.2 2.99394 75.36 3.07394C75.52 3.15394 75.62 3.32394 75.6 3.50394L73.02 45.0839L82.59 71.4939C82.68 71.7339 82.55 71.9939 82.32 72.0739C82.28 72.1039 82.23 72.1139 82.18 72.1139Z" fill="white"/>
<path d="M47.7 10.4839C47.68 10.4839 47.66 10.4839 47.64 10.4839L25.66 7.60394C25.41 7.57395 25.23 7.34394 25.27 7.09394C25.3 6.84394 25.54 6.67394 25.78 6.70394L47.76 9.58394C48.01 9.61394 48.19 9.84394 48.15 10.0939C48.12 10.3139 47.93 10.4839 47.7 10.4839Z" fill="white"/>
<path d="M60.08 83.6939C60.06 83.6939 60.03 83.6939 60.01 83.6839C59.89 83.6439 59.83 83.5139 59.86 83.3939L72.36 45.0839C72.4 44.9639 72.53 44.9039 72.65 44.9339C72.77 44.9739 72.83 45.1039 72.8 45.2239L60.3 83.5339C60.26 83.6339 60.17 83.6939 60.08 83.6939Z" fill="white"/>
<path d="M67.51 79.7239C67.5 79.7239 67.49 79.7239 67.48 79.7239C67.36 79.7039 67.27 79.5939 67.29 79.4639L72.36 45.1239C72.38 45.0039 72.49 44.9239 72.62 44.9339C72.74 44.9539 72.83 45.0639 72.81 45.1939L67.74 79.5339C67.71 79.6439 67.62 79.7239 67.51 79.7239Z" fill="white"/>
<path d="M73.27 76.6439C73.15 76.6439 73.05 76.5439 73.04 76.4239L72.35 45.1639C72.35 45.0339 72.45 44.9339 72.57 44.9339C72.69 44.9539 72.8 45.0339 72.8 45.1539L73.49 76.4139C73.5 76.5439 73.4 76.6439 73.27 76.6439Z" fill="white"/>
<path d="M77.78 74.2339C77.67 74.2339 77.58 74.1539 77.56 74.0439L72.35 45.1939C72.33 45.0739 72.41 44.9539 72.53 44.9339C72.67 44.9139 72.77 44.9939 72.79 45.1139L78 73.9639C78.02 74.0839 77.94 74.2039 77.82 74.2239C77.81 74.2339 77.8 74.2339 77.78 74.2339Z" fill="white"/>
<path d="M72.58 45.3839C72.57 45.3839 72.56 45.3839 72.54 45.3839C72.41 45.3639 72.33 45.2439 72.35 45.1239L78.77 4.64394C78.79 4.52394 78.91 4.44394 79.03 4.45394C79.16 4.47394 79.24 4.59394 79.22 4.71394L72.8 45.1939C72.78 45.3039 72.69 45.3839 72.58 45.3839Z" fill="white"/>
<path d="M72.58 45.3839C72.56 45.3839 72.54 45.3839 72.52 45.3739C72.4 45.3339 72.33 45.2139 72.37 45.0939L83.84 6.19394C83.88 6.07394 84 6.00394 84.12 6.04394C84.24 6.08394 84.31 6.20394 84.27 6.32394L72.8 45.2239C72.77 45.3139 72.68 45.3839 72.58 45.3839Z" fill="white"/>
<path d="M44.98 38.6539C44.92 38.6539 44.86 38.6339 44.81 38.5839L23.68 15.5939C23.6 15.5039 23.6 15.3539 23.69 15.2739C23.78 15.1939 23.93 15.1939 24.01 15.2839L45.14 38.2739C45.22 38.3639 45.22 38.5139 45.13 38.5939C45.09 38.6339 45.04 38.6539 44.98 38.6539Z" fill="white"/>
<path d="M44.71 38.3639C44.66 38.3639 44.61 38.3439 44.57 38.3139L16.38 15.3439C16.28 15.2639 16.27 15.1239 16.35 15.0239C16.43 14.9239 16.57 14.9139 16.67 14.9939L44.86 37.9539C44.96 38.0339 44.97 38.1739 44.89 38.2739C44.84 38.3339 44.78 38.3639 44.71 38.3639Z" fill="white"/>
<path d="M44.98 38.6539C44.94 38.6539 44.9 38.6439 44.86 38.6139L8.35998 15.0639C8.24998 14.9939 8.21997 14.8539 8.28997 14.7539C8.35997 14.6439 8.49997 14.6239 8.59997 14.6839L45.1 38.2339C45.21 38.3039 45.24 38.4439 45.17 38.5439C45.13 38.6139 45.06 38.6539 44.98 38.6539Z" fill="white"/>
<path d="M44.71 38.3639C44.68 38.3639 44.64 38.3539 44.61 38.3439L2.04996 16.8939C1.93996 16.8339 1.88999 16.7039 1.94999 16.5839C2.00999 16.4739 2.13999 16.4239 2.25999 16.4839L44.82 37.9339C44.93 37.9939 44.98 38.1239 44.92 38.2439C44.87 38.3139 44.79 38.3639 44.71 38.3639Z" fill="white"/>
<path d="M44.71 38.3639C44.69 38.3639 44.6699 38.3639 44.66 38.3539L6.09 28.8739C5.97 28.8439 5.88996 28.7239 5.91996 28.5939C5.94996 28.4739 6.06999 28.3939 6.19999 28.4239L44.77 37.9039C44.89 37.9339 44.97 38.0539 44.94 38.1839C44.91 38.2939 44.81 38.3639 44.71 38.3639Z" fill="white"/>
<path d="M72.64 45.1539C72.61 45.1539 72.58 45.1439 72.55 45.1339C72.43 45.0839 72.38 44.9539 72.43 44.8339L85.83 13.5439C85.88 13.4239 86.01 13.3739 86.13 13.4239C86.25 13.4739 86.3 13.6039 86.25 13.7239L72.85 45.0139C72.82 45.1039 72.73 45.1539 72.64 45.1539Z" fill="white"/>
<path d="M44.98 38.6539C44.97 38.6539 44.96 38.6539 44.95 38.6539L7.73997 33.7639C7.60997 33.7439 7.52996 33.6339 7.53996 33.5139C7.55996 33.3839 7.67996 33.2939 7.78996 33.3139L43.04 37.9439L4.24998 23.4339C4.12998 23.3939 4.06998 23.2639 4.11998 23.1439C4.15998 23.0239 4.28996 22.9639 4.40996 23.0139L45.07 38.2239C45.18 38.2639 45.24 38.3839 45.21 38.4939C45.18 38.5839 45.09 38.6539 44.98 38.6539Z" fill="white"/>
<path d="M44.98 38.6539H9.40002C9.27002 38.6539 9.16998 38.5539 9.16998 38.4239C9.16998 38.2939 9.27002 38.1939 9.40002 38.1939H44.98C45.11 38.1939 45.21 38.2939 45.21 38.4239C45.21 38.5539 45.11 38.6539 44.98 38.6539Z" fill="white"/>
</svg>
