<svg width="90" height="90" viewBox="0 0 90 90" fill="none" xmlns="http://www.w3.org/2000/svg">
<path d="M45.4813 85.455C45.3413 85.455 45.2013 85.395 45.1113 85.265L36.9213 74.145C36.8613 74.065 36.8313 73.965 36.8313 73.865L37.7813 12.895C37.7813 12.785 37.8313 12.675 37.9013 12.595L45.8313 4.14499C46.0013 3.96499 46.2913 3.95501 46.4713 4.12501C46.6513 4.29501 46.6613 4.58501 46.4913 4.76501L38.6813 13.085L37.7413 73.725L45.8413 84.725C45.9913 84.925 45.9513 85.215 45.7413 85.365C45.6713 85.425 45.5813 85.455 45.4813 85.455Z" fill="white"/>
<path d="M45.5213 85.445L10.0813 81.905C9.96129 81.895 9.8513 81.835 9.7713 81.745L2.10125 72.435C2.03125 72.355 1.99128 72.245 2.00128 72.135L3.12127 21.945C3.12127 21.825 3.17128 21.715 3.25128 21.635L11.0113 13.875C11.0713 13.825 11.1313 13.785 11.2113 13.755L46.0513 4.015C46.1413 3.995 46.2213 3.995 46.3113 4.015L80.3713 14.625C80.4413 14.645 80.5013 14.685 80.5613 14.735L88.2313 22.405C88.3113 22.495 88.3613 22.605 88.3613 22.725V73.255C88.3613 73.365 88.3213 73.465 88.2513 73.555L80.5813 82.435C80.5013 82.525 80.3913 82.585 80.2713 82.595L45.5213 85.445ZM10.3613 81.025L45.5313 84.545L80.0113 81.715L87.4513 73.105V22.935L79.9913 15.475L46.1613 4.94499L11.5713 14.625L4.0213 22.175L2.91125 72.015L10.3613 81.025Z" fill="white"/>
<path d="M45.4813 85.455C45.3913 85.455 45.2913 85.425 45.2113 85.365C45.0113 85.215 44.9713 84.925 45.1213 84.725L53.1712 73.925L53.8313 13.125L45.8512 4.77499C45.6812 4.59499 45.6813 4.30499 45.8613 4.13499C46.0413 3.96499 46.3313 3.96499 46.5013 4.14499L54.6113 12.625C54.6913 12.715 54.7413 12.825 54.7413 12.945L54.0813 74.085C54.0813 74.185 54.0513 74.275 53.9913 74.355L45.8613 85.275C45.7613 85.385 45.6213 85.455 45.4813 85.455Z" fill="white"/>
<path d="M53.6313 74.525L37.2913 74.325L2.4413 72.595C2.1913 72.585 2.0013 72.365 2.0113 72.115C2.0213 71.865 2.22128 71.635 2.49128 71.685L37.3313 73.405L53.6413 73.605L87.9113 72.805C88.1513 72.835 88.3713 72.995 88.3813 73.245C88.3913 73.495 88.1913 73.705 87.9413 73.715L53.6313 74.525Z" fill="white"/>
<path d="M87.9113 23.195C87.8713 23.195 87.8213 23.185 87.7813 23.175L54.2113 13.395L38.2913 13.365L3.6813 22.405C3.4313 22.465 3.1913 22.325 3.1213 22.075C3.0613 21.835 3.20132 21.585 3.45132 21.515L38.1113 12.465C38.1513 12.455 38.1913 12.455 38.2313 12.455L54.2713 12.485C54.3113 12.485 54.3513 12.495 54.4013 12.505L88.0313 22.305C88.2713 22.375 88.4113 22.625 88.3413 22.865C88.2913 23.065 88.1113 23.195 87.9113 23.195Z" fill="white"/>
<path d="M41.0413 84.775C40.9513 84.775 40.8613 84.715 40.8313 84.625L37.4813 75.075L37.1313 84.145C37.1313 84.275 37.0013 84.375 36.8913 84.365C36.7613 84.365 36.6713 84.255 36.6713 84.125L37.0613 73.855C37.0613 73.745 37.1513 73.655 37.2513 73.635C37.3713 73.615 37.4613 73.685 37.5013 73.785L41.2513 84.465C41.2913 84.585 41.2313 84.715 41.1113 84.755C41.0913 84.775 41.0713 84.775 41.0413 84.775Z" fill="white"/>
<path d="M32.0813 83.885C32.0413 83.885 32.0112 83.875 31.9712 83.855C31.8612 83.795 31.8213 83.655 31.8813 83.545L36.5213 74.845L26.8012 83.275C26.7112 83.355 26.5612 83.345 26.4812 83.255C26.4012 83.155 26.4113 83.015 26.5013 82.935L37.1513 73.695C37.2313 73.625 37.3613 73.625 37.4413 73.685C37.5313 73.755 37.5513 73.875 37.5013 73.975L32.2813 83.755C32.2413 83.835 32.1613 83.885 32.0813 83.885Z" fill="white"/>
<path d="M21.5413 82.825C21.4613 82.825 21.3813 82.785 21.3413 82.705C21.2813 82.595 21.3213 82.455 21.4313 82.395L34.9513 74.895L13.9513 82.035C13.8313 82.075 13.7013 82.015 13.6613 81.895C13.6213 81.775 13.6813 81.645 13.8013 81.605L37.2213 73.645C37.3313 73.605 37.4513 73.665 37.5013 73.765C37.5513 73.875 37.5013 73.995 37.4013 74.055L21.6513 82.785C21.6213 82.825 21.5813 82.825 21.5413 82.825Z" fill="white"/>
<path d="M8.43129 79.625C8.32129 79.625 8.23132 79.545 8.21132 79.445C8.19132 79.325 8.27132 79.205 8.39132 79.175L33.5713 74.345L5.66127 76.245C5.51127 76.255 5.43128 76.155 5.42128 76.035C5.41128 75.905 5.51131 75.805 5.63131 75.795L37.2713 73.645C37.4013 73.615 37.5013 73.725 37.5113 73.845C37.5313 73.965 37.4513 74.075 37.3313 74.095L8.47127 79.625C8.46127 79.625 8.45129 79.625 8.43129 79.625Z" fill="white"/>
<path d="M86.6213 22.585C86.5913 22.585 86.5712 22.585 86.5512 22.575C86.4912 22.555 86.3913 22.525 75.7613 13.885C75.6613 13.805 75.6512 13.665 75.7312 13.565C75.8112 13.465 75.9512 13.455 76.0512 13.535C78.9212 15.865 86.4312 21.965 86.7312 22.165C86.8512 22.205 86.8912 22.315 86.8612 22.435C86.8312 22.535 86.7313 22.585 86.6213 22.585Z" fill="white"/>
<path d="M85.8113 22.355C85.7713 22.355 85.7413 22.345 85.7013 22.325L60.8113 9.24499C60.7013 9.18499 60.6613 9.04499 60.7113 8.93499C60.7713 8.82499 60.9113 8.78499 61.0213 8.83499L80.7713 19.215L68.9613 11.775C68.8513 11.705 68.8213 11.565 68.8913 11.465C68.9613 11.355 69.1013 11.325 69.2013 11.395L85.9212 21.925C86.0212 21.995 86.0613 22.125 86.0013 22.235C85.9713 22.315 85.8913 22.355 85.8113 22.355Z" fill="white"/>
<path d="M83.4712 21.665C83.4412 21.665 83.4213 21.665 83.3913 21.655L50.2013 8.97499C50.0813 8.93499 50.0213 8.795 50.0713 8.685C50.1213 8.565 50.2512 8.515 50.3612 8.555L78.2513 19.205L50.9613 6.185C50.8513 6.135 50.8012 5.995 50.8512 5.885C50.9012 5.775 51.0413 5.725 51.1513 5.775L83.5713 21.245C83.6813 21.295 83.7313 21.425 83.6813 21.535C83.6413 21.615 83.5612 21.665 83.4712 21.665Z" fill="white"/>
</svg>
