<svg width="90" height="90" viewBox="0 0 90 90" fill="none" xmlns="http://www.w3.org/2000/svg">
<path d="M38.5039 86.1741C38.3939 86.1741 38.2839 86.1341 38.1939 86.0541L24.6639 73.7241L7.8939 70.8141C7.7139 70.7841 7.57389 70.6441 7.53389 70.4741L2.01391 47.2441C2.00391 47.1841 1.9939 47.1241 2.0039 47.0641L6.7139 20.3941C6.7339 20.2541 6.82389 20.1341 6.95389 20.0741L39.0339 3.0541C39.1339 3.0041 39.2439 2.9841 39.3539 3.0141L74.4839 11.3541C74.5339 11.3641 74.5739 11.3841 74.6139 11.4041L82.3139 16.1141C82.3939 16.1641 82.4539 16.2341 82.4939 16.3141L88.3539 29.4841C88.3839 29.5541 88.3939 29.6241 88.3939 29.6941L85.6939 73.5541C85.6839 73.6741 85.6339 73.7841 85.5339 73.8641C85.4439 73.9441 85.3339 73.9941 85.2039 73.9741L62.1239 72.2641L38.7339 86.1041C38.6639 86.1541 38.5839 86.1741 38.5039 86.1741ZM8.34389 69.9741L24.9539 72.8541C25.0339 72.8641 25.1139 72.9041 25.1839 72.9641L38.5639 85.1541L61.7839 71.4141C61.8639 71.3641 61.9439 71.3441 62.0539 71.3541L84.8239 73.0441L87.4939 29.7541L81.7339 16.8241L74.2139 12.2241L39.3239 3.9441L7.59389 20.7741L2.9339 47.1341L8.34389 69.9741Z" fill="white"/>
<path d="M38.5039 86.1741C38.4739 86.1741 38.4439 86.1741 38.4139 86.1641C38.1639 86.1141 38.0039 85.8741 38.0539 85.6341L45.2439 48.2941C45.2639 48.1941 45.3139 48.1041 45.3939 48.0341L57.1239 37.8541C57.2539 37.7441 57.4239 37.7141 57.5839 37.7741C57.7439 37.8341 57.8539 37.9741 57.8739 38.1341L62.4739 71.7341C62.5039 71.9841 62.3339 72.2141 62.0839 72.2441C61.8339 72.2741 61.6039 72.1041 61.5739 71.8541L57.0839 39.0841L46.1139 48.6041L38.9539 85.7841C38.9039 86.0241 38.7139 86.1741 38.5039 86.1741Z" fill="white"/>
<path d="M7.16389 20.9241C6.93389 20.9241 6.73389 20.7441 6.71389 20.5041C6.69389 20.2541 6.88389 20.0341 7.13389 20.0141L17.3239 19.2241L38.9739 3.0941C39.1739 2.9441 39.4639 2.9841 39.6139 3.1841C39.7639 3.3841 39.7239 3.67409 39.5239 3.82409L17.7639 20.0241C17.6939 20.0741 17.6139 20.1041 17.5239 20.1141L7.20388 20.9141C7.19388 20.9241 7.18389 20.9241 7.16389 20.9241Z" fill="white"/>
<path d="M45.6839 48.8341C45.6639 48.8341 45.6539 48.8341 45.6339 48.8341L17.9539 45.8941C17.7239 45.8741 17.5539 45.6841 17.5439 45.4541L17.0239 19.6841C17.0239 19.5041 17.1239 19.3441 17.2839 19.2641C17.4439 19.1841 17.6439 19.2141 17.7739 19.3341L30.6239 30.4541L46.0139 48.0941C46.1339 48.2341 46.1639 48.4341 46.0739 48.6041C46.0139 48.7441 45.8539 48.8341 45.6839 48.8341ZM18.4539 45.0241L44.5839 47.8041L29.9939 31.0841L17.9639 20.6741L18.4539 45.0241Z" fill="white"/>
<path d="M24.8739 73.5241C24.7739 73.5241 24.6739 73.4541 24.6539 73.3541L17.8339 45.6841L2.4839 47.3741C2.3639 47.3941 2.2439 47.2941 2.2339 47.1741C2.2239 47.0441 2.31389 46.9341 2.43389 46.9241L17.9839 45.2141C18.0939 45.1941 18.2039 45.2741 18.2339 45.3841L25.1039 73.2441C25.1339 73.3641 25.0639 73.4941 24.9339 73.5241C24.9139 73.5241 24.8939 73.5241 24.8739 73.5241Z" fill="white"/>
<path d="M57.4139 38.6541C57.2739 38.6541 57.1339 38.5841 57.0439 38.4741C56.9339 38.3241 56.9239 38.1141 57.0239 37.9541L73.1739 12.7941L30.5039 31.2041C30.2739 31.3041 30.0039 31.1941 29.9039 30.9641C29.8039 30.7341 29.9139 30.4641 30.1439 30.3641L74.1839 11.3641C74.3739 11.2841 74.5839 11.3341 74.7139 11.4841C74.8439 11.6341 74.8539 11.8541 74.7539 12.0241L58.4439 37.4341L87.8139 29.2241C88.0639 29.1541 88.3039 29.3041 88.3739 29.5441C88.4439 29.7841 88.3039 30.0341 88.0539 30.1041L57.5239 38.6441C57.4939 38.6541 57.4539 38.6541 57.4139 38.6541Z" fill="white"/>
<path d="M51.8139 78.0641C51.8039 78.0641 51.7939 78.0641 51.7839 78.0641C51.6639 78.0441 51.5739 77.9341 51.5939 77.8041L57.1939 38.1641C57.2139 38.0441 57.3039 37.9441 57.4439 37.9741C57.5639 37.9841 57.6539 38.0841 57.6539 38.2041L56.6139 75.1441C56.6139 75.2641 56.5139 75.3641 56.3839 75.3641C56.3839 75.3641 56.3839 75.3641 56.3739 75.3641C56.2439 75.3641 56.1539 75.2541 56.1539 75.1341L57.0839 42.2441L52.0539 77.8641C52.0239 77.9841 51.9239 78.0641 51.8139 78.0641Z" fill="white"/>
<path d="M39.8339 85.1541C39.8039 85.1541 39.7839 85.1541 39.7539 85.1441C39.6339 85.1041 39.5739 84.9641 39.6239 84.8541L57.2039 38.1341C57.2439 38.0241 57.3739 37.9641 57.4839 37.9941C57.6039 38.0341 57.6639 38.1541 57.6339 38.2641L47.0539 80.8441C47.0239 80.9641 46.9039 81.0441 46.7739 81.0141C46.6539 80.9841 46.5739 80.8641 46.6039 80.7341L56.2439 41.9441L40.0439 85.0141C40.0139 85.0941 39.9239 85.1541 39.8339 85.1541Z" fill="white"/>
<path d="M41.4639 70.5641C41.4339 70.5641 41.3939 70.5541 41.3639 70.5441C41.2539 70.4841 41.2039 70.3541 41.2639 70.2341L56.0939 40.3741L44.4339 56.0341C44.3539 56.1341 44.2139 56.1541 44.1139 56.0841C44.0139 56.0041 43.9939 55.8641 44.0639 55.7641L57.2339 38.0841C57.3039 37.9841 57.4339 37.9641 57.5339 38.0241C57.6339 38.0841 57.6739 38.2141 57.6139 38.3241L41.6639 70.4341C41.6239 70.5141 41.5439 70.5641 41.4639 70.5641Z" fill="white"/>
<path d="M64.0639 36.5741C64.0339 36.5741 64.0039 36.5641 63.9739 36.5541C63.8539 36.5041 63.8039 36.3741 63.8539 36.2541L74.1639 11.6941C74.2039 11.5841 74.3339 11.5241 74.4439 11.5641C74.5539 11.6041 74.6239 11.7141 74.5939 11.8341L69.1639 35.0241C69.1339 35.1441 69.0139 35.2241 68.8939 35.1941C68.7739 35.1641 68.6939 35.0441 68.7239 34.9241L73.5339 14.3741L64.2739 36.4341C64.2339 36.5141 64.1539 36.5741 64.0639 36.5741Z" fill="white"/>
<path d="M73.7839 33.8541C73.6539 33.8541 73.5539 33.7441 73.5539 33.6241L74.1439 11.7841C74.1439 11.6641 74.2339 11.5741 74.3539 11.5641C74.4839 11.5541 74.5739 11.6341 74.5939 11.7441L79.2539 32.1141C79.2839 32.2341 79.2039 32.3541 79.0839 32.3841C78.9539 32.4141 78.8439 32.3341 78.8139 32.2141L74.5639 13.5941L74.0239 33.6341C74.0039 33.7541 73.9039 33.8541 73.7839 33.8541Z" fill="white"/>
<path d="M83.2239 31.2141C83.1339 31.2141 83.0539 31.1641 83.0139 31.0841L74.1539 11.8841C74.1039 11.7841 74.1439 11.6541 74.2339 11.5941C74.3239 11.5341 74.4539 11.5541 74.5339 11.6441L86.3939 25.6941C86.4739 25.7941 86.4639 25.9341 86.3639 26.0141C86.2739 26.0941 86.1239 26.0841 86.0439 25.9841L75.2639 13.2141L83.4139 30.8841C83.4639 30.9941 83.4139 31.1341 83.3039 31.1841C83.2939 31.2041 83.2639 31.2141 83.2239 31.2141Z" fill="white"/>
</svg>
