<svg width="90" height="90" viewBox="0 0 90 90" fill="none" xmlns="http://www.w3.org/2000/svg">
<path d="M43.765 82.75C43.655 82.75 43.555 82.71 43.475 82.64L31.7451 72.77L22.055 63.13C22.025 63.1 21.995 63.06 21.975 63.02L15.7151 51.27L10.295 46.02C10.245 45.97 10.215 45.92 10.185 45.86L3.71505 29.39C3.70505 29.36 3.69504 29.33 3.68504 29.29L2.00504 18.12C1.97504 17.93 2.07505 17.74 2.24505 17.65L18.115 9.37C18.165 9.34 18.225 9.32999 18.285 9.31999L30.9651 8.16L42.385 7L53.895 7.95L66.905 8.81L86.785 8.59C87.025 8.59 87.235 8.78 87.245 9.03L88.065 30.59L87.115 47.88C87.115 47.96 87.085 48.03 87.045 48.1L78.165 62.33C78.135 62.38 78.095 62.42 78.055 62.45L70.165 68.36C70.085 68.42 69.985 68.45 69.875 68.45L55.195 67.77L44.125 82.58C44.055 82.68 43.935 82.75 43.815 82.76C43.805 82.75 43.785 82.75 43.765 82.75ZM22.755 62.53L32.365 72.1L43.695 81.64L54.615 67.02C54.705 66.9 54.835 66.84 55.005 66.84L69.755 67.52L77.445 61.76L86.215 47.7L87.155 30.57L86.355 9.5L66.875 9.70999L53.815 8.84999L42.385 7.89999L31.045 9.06L18.455 10.22L2.95504 18.31L4.58505 29.11L10.995 45.44L16.405 50.67C16.435 50.7 16.465 50.74 16.485 50.78L22.755 62.53Z" fill="white"/>
<path d="M43.765 82.75C43.545 82.75 43.345 82.59 43.315 82.36L40.815 64.6L42.815 39.5L26.9751 14.37L13.3551 12.8C13.1051 12.77 12.925 12.55 12.955 12.3C12.985 12.05 13.195 11.88 13.455 11.9L27.2851 13.5C27.4251 13.52 27.5451 13.59 27.6151 13.71L43.655 39.15C43.705 39.23 43.7351 39.33 43.7251 39.43L41.7151 64.58L44.2151 82.24C44.2551 82.49 44.0751 82.72 43.8251 82.75C43.8051 82.75 43.785 82.75 43.765 82.75Z" fill="white"/>
<path d="M27.235 14.4C27.005 14.4 26.8051 14.23 26.7851 13.99C26.7551 13.74 26.935 13.52 27.185 13.49L42.845 11.8L58.5251 13.24L72.655 12.59L86.655 8.58999C86.8951 8.51999 87.1451 8.65999 87.2151 8.89999C87.2851 9.13999 87.1451 9.38999 86.905 9.45999L72.845 13.47C72.815 13.48 72.7751 13.49 72.7451 13.49L58.4951 14.14L42.845 12.69L27.2751 14.38C27.2751 14.4 27.255 14.4 27.235 14.4Z" fill="white"/>
<path d="M54.975 67.75C54.935 67.75 54.8951 67.75 54.855 67.73C54.6151 67.66 54.475 67.41 54.535 67.17L57.815 55.41L50.195 34.33L42.475 12.4C42.395 12.16 42.515 11.9 42.755 11.82C42.995 11.74 43.255 11.86 43.335 12.1L51.055 34.02L58.725 55.23C58.755 55.32 58.765 55.42 58.735 55.51L55.415 67.41C55.355 67.61 55.175 67.75 54.975 67.75Z" fill="white"/>
<path d="M69.8951 68.44C69.8351 68.44 69.7751 68.43 69.7151 68.4C69.4851 68.3 69.3851 68.03 69.4851 67.8L76.3051 52.18L77.0351 33.7L72.3051 13.15C72.2451 12.9 72.4051 12.66 72.6451 12.6C72.8951 12.54 73.1351 12.7 73.1951 12.94L77.9351 33.55C77.9451 33.59 77.9451 33.63 77.9451 33.67L77.2151 52.3C77.2151 52.36 77.1951 52.41 77.1751 52.47L70.3151 68.16C70.2351 68.33 70.0651 68.44 69.8951 68.44Z" fill="white"/>
<path d="M41.265 64.99C41.205 64.99 41.1451 64.98 41.0951 64.96L26.0051 58.89C25.9651 58.88 25.935 58.86 25.905 58.83L15.8151 51.36C15.6151 51.21 15.5651 50.93 15.7251 50.72C15.8751 50.52 16.1651 50.48 16.3651 50.63L26.405 58.07L41.2451 64.03L58.0851 54.99C58.1251 54.97 58.1751 54.95 58.2251 54.94L76.625 51.85L86.4851 47.43C86.7151 47.33 86.9851 47.43 87.0851 47.66C87.1851 47.89 87.0851 48.16 86.8551 48.26L76.935 52.7C76.895 52.72 76.8651 52.73 76.8251 52.73L58.4451 55.82L41.4851 64.93C41.4151 64.97 41.345 64.99 41.265 64.99Z" fill="white"/>
<path d="M43.2751 39.84C43.1351 39.84 42.995 39.77 42.905 39.65C42.755 39.44 42.805 39.16 43.015 39.02L50.2451 33.9L57.875 13.53C57.965 13.29 58.2251 13.17 58.4551 13.26C58.6951 13.35 58.8151 13.61 58.7251 13.84L51.0551 34.34C51.0251 34.43 50.9651 34.5 50.8951 34.55L43.5551 39.75C43.4651 39.81 43.3651 39.84 43.2751 39.84Z" fill="white"/>
<path d="M50.625 34.63C50.375 34.63 50.1751 34.43 50.1651 34.18C50.1651 33.93 50.3651 33.72 50.6151 33.72L77.4151 33.2L87.485 30.16C87.7251 30.09 87.9851 30.22 88.0551 30.46C88.1251 30.7 87.9951 30.96 87.7551 31.03L77.625 34.09C77.585 34.1 77.5451 34.11 77.5051 34.11L50.625 34.63Z" fill="white"/>
<path d="M31.875 72.48C31.785 72.48 31.7051 72.43 31.6651 72.34L25.9651 58.55C25.9551 58.52 25.9451 58.48 25.9451 58.44L27.845 35.27L27.015 13.94C27.015 13.81 27.105 13.71 27.235 13.7C27.345 13.71 27.4651 13.79 27.4751 13.92L28.3051 35.28L26.4151 58.42L32.095 72.16C32.145 72.28 32.0851 72.41 31.9751 72.46C31.9351 72.48 31.905 72.48 31.875 72.48Z" fill="white"/>
<path d="M16.085 50.99C15.965 50.99 15.8651 50.9 15.8551 50.78L14.845 32.27L13.175 12.37C13.165 12.25 13.255 12.14 13.375 12.12L53.055 8.11C53.1851 8.09 53.2951 8.19 53.305 8.31C53.315 8.44 53.2251 8.55 53.1051 8.56L13.655 12.55L15.315 32.24L16.3251 50.76C16.3351 50.89 16.235 50.99 16.115 51C16.095 50.99 16.095 50.99 16.085 50.99Z" fill="white"/>
<path d="M43.2751 39.61C43.2551 39.61 43.2351 39.61 43.2151 39.6L28.0051 35.52L15.015 32.48L4.06505 29.45C3.94505 29.42 3.87505 29.29 3.90505 29.17C3.93505 29.05 4.05504 28.98 4.18504 29.01L15.125 32.04L28.1051 35.08L43.315 39.16C43.435 39.19 43.5051 39.32 43.4751 39.44C43.4651 39.54 43.3751 39.61 43.2751 39.61Z" fill="white"/>
<path d="M55.795 12.57L42.905 12.48L18.3051 10C18.1751 9.99 18.0851 9.88 18.1051 9.75C18.1151 9.62 18.2351 9.53 18.3551 9.55L42.935 12.03L55.7751 12.12L66.8251 9.03999C66.9451 9.00999 67.0751 9.08 67.1051 9.2C67.1351 9.32 67.065 9.45 66.9451 9.48L55.8651 12.57C55.8351 12.57 55.815 12.57 55.795 12.57Z" fill="white"/>
<path d="M72.7451 13.28C72.7351 13.28 72.7351 13.28 72.7451 13.28L55.795 12.57L42.565 9.61L33.2251 8.56C33.0951 8.55 33.0151 8.43 33.0251 8.31C33.0451 8.19 33.1451 8.09 33.2751 8.11L42.6351 9.17L55.8551 12.13L72.7551 12.83C72.8851 12.84 72.9751 12.94 72.9751 13.07C72.9651 13.18 72.8651 13.28 72.7451 13.28Z" fill="white"/>
<path d="M42.9851 77C42.9151 77 42.8551 76.97 42.8051 76.91C42.7251 76.81 42.7451 76.67 42.8451 76.59L53.8351 67.89L42.3051 71.65C42.1851 71.69 42.0551 71.62 42.0151 71.5C41.9751 71.38 42.0451 71.25 42.1651 71.21L54.9051 67.06C55.0151 67.03 55.1251 67.07 55.1751 67.17C55.2251 67.27 55.2051 67.39 55.1151 67.46L43.1251 76.95C43.0851 76.99 43.0351 77 42.9851 77Z" fill="white"/>
<path d="M54.9751 67.52H41.655C41.525 67.52 41.425 67.42 41.425 67.29C41.425 67.16 41.525 67.06 41.655 67.06H54.095L45.5751 62.36C45.4651 62.3 45.425 62.16 45.485 62.05C45.545 61.94 45.685 61.9 45.795 61.96L55.0851 67.09C55.1751 67.14 55.2251 67.25 55.1951 67.35C55.1751 67.45 55.0851 67.52 54.9751 67.52Z" fill="white"/>
<path d="M54.9751 67.52C54.8951 67.52 54.815 67.48 54.775 67.4L50.395 59.63C50.335 59.52 50.375 59.38 50.485 59.32C50.595 59.26 50.735 59.3 50.795 59.41L54.675 66.3L54.085 57.54C54.075 57.41 54.175 57.31 54.295 57.3C54.435 57.28 54.525 57.39 54.535 57.51L55.195 67.27C55.205 67.38 55.135 67.47 55.035 67.5C55.025 67.52 54.9951 67.52 54.9751 67.52Z" fill="white"/>
<path d="M42.1351 53.94C42.1051 53.94 42.0751 53.93 42.0451 53.92C41.9251 53.87 41.8751 53.74 41.9251 53.62L49.4751 36.24L42.9751 45.69C42.9051 45.79 42.7651 45.82 42.6551 45.75C42.5551 45.68 42.5251 45.54 42.5951 45.43L50.4351 34.04C50.5051 33.94 50.6351 33.91 50.7351 33.97C50.8351 34.03 50.8851 34.15 50.8351 34.26L42.3451 53.8C42.3051 53.89 42.2151 53.94 42.1351 53.94Z" fill="white"/>
<path d="M41.2651 64.76C41.2451 64.76 41.2251 64.76 41.1951 64.75C41.0751 64.71 41.0051 64.58 41.0451 64.46L50.4051 34.11C50.4451 34 50.5551 33.93 50.6751 33.96C50.7951 33.99 50.8651 34.1 50.8451 34.22L45.9051 62.2C45.8851 62.32 45.7551 62.41 45.6451 62.38C45.5251 62.36 45.4351 62.24 45.4651 62.12L49.7651 37.74L41.4851 64.6C41.4551 64.7 41.3651 64.76 41.2651 64.76Z" fill="white"/>
<path d="M50.595 59.75C50.465 59.75 50.3651 59.65 50.3651 59.52L50.3851 34.18C50.3851 34.06 50.475 33.96 50.595 33.95C50.715 33.93 50.8151 34.02 50.8351 34.14L54.5251 57.49C54.5451 57.61 54.4651 57.73 54.3351 57.75C54.2151 57.77 54.0951 57.68 54.0751 57.56L50.8251 37.05L50.8051 59.52C50.8251 59.65 50.725 59.75 50.595 59.75Z" fill="white"/>
</svg>
